<?xml version="1.0" encoding="UTF-8"?>
<svg id="Layer_2" data-name="Layer 2" xmlns="http://www.w3.org/2000/svg" viewBox="0 0 799.81 535.88">
  <defs>
    <style>
      .cls-1 {
        fill: #fefefe;
      }

      .cls-1, .cls-2, .cls-3, .cls-4, .cls-5, .cls-6, .cls-7, .cls-8 {
        stroke-width: 0px;
      }

      .cls-2 {
        fill: #0e0e0e;
      }

      .cls-3 {
        fill: #040404;
      }

      .cls-4 {
        fill: #0d0d0d;
      }

      .cls-5 {
        fill: #0c0c0c;
      }

      .cls-6 {
        fill: #0a0a0a;
      }

      .cls-7 {
        fill: #080808;
      }

      .cls-8 {
        fill: #111;
      }
    </style>
  </defs>
  <g id="Layer_1-2" data-name="Layer 1">
    <g>
      <path class="cls-3" d="M513.66,509.99c-29.03,2.2-60.28,9.15-91.99,1.9-29.4,11.52-60.69,8.14-94.99,9.95-11.25,3.32-26.61,2.83-41.7,3.88-51.63,3.56-103.28,6.67-154.92,10.06-6.46.42-12.3-.3-18.1-3.72-9.87-5.83-20.16-10.95-30.8-16.65,1.08-24.05,2.17-48.26,3.36-74.69-32.11,10.35-59.71,1.47-84.52-20.52,6.46-110.46,13.02-222.52,19.58-334.5,42.33-10.17,115.76-14.25,127.55-8.44,42.82-16.83,84.85-21.28,131.24-16.78,35.9-17.57,78.59-14.34,121.17-19.03-.16,1.03.08-.51.42-2.79,25.66-3.14,51.53-6.29,77.53-9.47,1.09,1.32,2.13,2.56,2.18,2.62,40.35-9.15,80.41-12.67,121.42-14.3-.02.16.19-1.44.45-3.45,26.96-3.32,54.02-6.64,81.38-10.01.68.96,1.41,1.99,1.9,2.67,10.35-2.03,20.35-4.59,30.51-5.88,22.82-2.9,39.11.59,47.88,28.82,13.21,42.52,11.84,86.18,15.12,129.48,4.62,60.98,7.89,122.06,11.7,183.1.16,2.55,1.68,5.77-1.59,6.45,6.96,47.93,6.91,96.07,11.36,144.58-43.25,2.68-85.98,5.33-128.71,7.98-29.75,2.67-59.55,4.77-83.86,4.03-27.35,3.67-49.22,5.12-73.59,4.72ZM617,24.43c2.16,56.85,4.29,113.12,6.43,169.59,20.68-2.08,40.63-4.08,60.81-6.11-2.03-43.28-4.03-85.79-6.04-128.73,5.16-.55,9.66-1.03,14.5-1.55,2.17,43.28,4.3,85.77,6.45,128.79,20.91-2.1,41.15-4.14,61.42-6.17,0-2.42.08-4.07-.01-5.71-2.73-46.39-5.5-92.77-8.2-139.16-1.12-19.27-8.81-25.79-28.28-23.85-16.69,1.66-32.75,5.28-47.16,15.68-.37-3.65-.65-6.52-.99-9.86-19.64,2.36-38.9,4.68-58.94,7.09ZM608.39,74.97c.23-.95.38-1.27.37-1.58-.3-7.98-.57-15.96-.93-23.93-.68-15.07-6.5-21.88-21.17-20.57-29.49,2.63-58.95,6.12-88.23,10.5-14.84,2.22-20.25,10.51-20.06,25.74.48,39.64,1.12,79.28,1.64,118.91.19,15.06,6.47,21.97,21.71,21.51,13.78-.42,27.52-2.15,41.27-3.49,23.29-2.26,46.56-4.66,68.05-6.83v-105.31c-21.42,2.43-40.69,4.62-59.4,6.75v61.46c-3.96.43-8.36.91-14.05,1.53v-84.23c3.79-.37,8.15-.79,12.67-1.22.13,2.82.23,4.93.35,7.41,19.44-2.24,38.55-4.43,57.79-6.64ZM403.3,101.22c0-8.75,0-16.9,0-25.05,0-18.34-6.82-24.77-25.16-22.76-24.65,2.71-49.26,5.7-73.85,8.92-17.26,2.26-24.33,10.71-24.52,28-.17,15.32-.03,30.66-.81,45.95-1.2,23.38,5.85,30.13,29.31,27.25,12.81-1.58,25.67-2.81,38.47-4.2v20.51c-4.53.46-8.56.88-13.18,1.35v-10.21c-18.68,2.01-36.81,3.96-55.73,5.99,0,8.82,0,17.12,0,25.43-.01,19.18,5.98,25.2,25.26,23.63,24.71-2.02,49.4-4.42,74.01-7.37,20.67-2.48,26.47-9.72,26.47-30.49,0-16.66,0-33.32,0-49.97,0-19.64-6.94-25.77-26.79-23.62-14,1.52-27.99,3.1-42.13,4.67v-20.01c4.48-.48,8.49-.92,13.03-1.41v9.74c18.65-2.12,36.8-4.19,55.64-6.34ZM271.48,167.43c0-25.68-.02-51.12,0-76.57.02-17.59-5.56-23.45-23.17-21.73-24.84,2.43-49.64,5.54-74.35,9.08-15.41,2.21-21.62,10.35-22.18,25.88-1.35,37.75-2.75,75.51-4.29,113.25-.67,16.44,5.62,23.41,22.13,22.05,25.21-2.07,50.37-4.72,75.5-7.61,9.66-1.11,19.22-4.3,22.42-14.8,3.86-12.67,1.44-25.87,2.14-39.19-18.68,2.01-36.48,3.92-54.32,5.84-.25,3.69-.45,6.77-.68,10.16-4.38.42-8.24.78-12.05,1.15v-20.02c22.53-2.45,44.51-4.84,68.83-7.49ZM28.57,95.56c-3.06,53.26-6.1,106.03-9.18,159.51,33.99-3.75,67.25-7.06,100.4-11.28,10.77-1.37,18.6-8.09,19.13-19.83,1.86-41.24,3.4-82.5,4.9-123.76.33-9.03-4.37-14.26-13.39-15.66-7.74-1.19-15.26.6-22.83,1.48-26.26,3.07-52.5,6.32-79.04,9.54ZM135.95,502.22v-97.09c5.23-.33,8.12-.52,9.73-.62v97.08c12.5-.85,25.9-1.76,41.44-2.82v-97.76c5.09-.3,8.01-.47,10.03-.59v97.67c12.7-.85,26.2-1.75,42.52-2.85,0-38.8.12-77.22-.14-115.64-.03-5.15-3.96-9.05-8.71-10.67-16.16-5.53-30.92-2.72-43.62,8.13-16.7-12.45-32.41-5.87-48.17,2.08-.09-1.93-.18-3.87-.29-6.31-13.36,1.13-26.53,2.25-39.83,3.38-1.9,43.15-3.77,85.78-5.66,128.92,14.01-.95,27.21-1.85,42.71-2.9ZM580.08,326.73c2.66-18.94,5.28-37.53,8.36-59.45,4.39,21.3,8.1,39.27,11.91,57.73,17.14-1.47,33.94-2.91,50.78-4.36,5.13-40.56,10.17-80.39,15.29-120.88-13.53,1.33-26.2,2.58-39.19,3.86-2.5,21.09-4.95,41.77-7.8,65.77-4.47-23.46-8.29-43.48-12.17-63.79-13.44,1.34-26.46,2.63-39.65,3.94-2.56,20.92-5.07,41.39-8.04,65.62-4.35-23.62-7.99-43.44-11.71-63.66-13.62,1.35-26.8,2.66-40.66,4.04,7.47,38.77,14.84,76.99,22.25,115.47,17.05-1.45,33.44-2.84,50.62-4.29ZM776.39,459.02c-2.37-39.95-4.68-79.16-7.03-118.37-.83-13.83-6.34-19.04-20.2-18.82-13.6.22-26.57,3.04-38.28,10.88-.34-2.92-.6-5.16-.9-7.77-15.44,1.3-30.44,2.57-45.87,3.87,1.99,46.05,3.95,91.52,5.94,137.4,16.1-1.1,31.46-2.15,47.16-3.22-1.74-34.98-3.45-69.29-5.17-103.9,4.1-.28,7.46-.51,11.12-.76,1.84,34.9,3.64,69.08,5.47,103.88,16.03-1.07,31.56-2.12,47.74-3.2ZM661.56,398.91c-1.34,0-2.69,0-4.03,0,0-16.79-.08-33.58.03-50.38.08-11.73-6.37-17.82-17.28-17.22-23.24,1.28-46.46,3.29-69.59,5.93-9.95,1.13-15.23,7.82-14.91,18.51,1,33.1,1.85,66.2,2.56,99.31.25,11.74,6.59,17.43,17.58,16.95,22.77-.98,45.54-2.34,68.22-4.43,13.08-1.2,17.67-7.88,17.47-20.79-.25-15.96-.06-31.92-.06-47.88ZM399.15,442.12c0,8.43.15,16.24-.04,24.04-.27,11.35,5.74,17.14,16.44,16.69,22.27-.95,44.56-2.33,66.74-4.48,10.78-1.05,16.71-7.73,16.22-19.47-.62-14.97-.62-29.96-.83-44.95-.22-15.53-6.21-20.86-21.68-19.5-11,.96-22.02,1.66-33.15,2.49v-16.45c3.48-.17,6.68-.32,10.03-.49.14,2.93.24,5.23.37,7.9,14.64-1.17,29.14-2.34,43.58-3.5,0-8.29-.06-15.93.01-23.57.1-11.11-6.01-16.78-16.43-16.18-22.08,1.27-44.15,3.08-66.12,5.59-10.19,1.16-15.61,7.99-15.44,18.78.22,13.98.17,27.97.19,41.96.04,17.91,5.17,22.62,23.29,21.31,10.23-.74,20.46-1.47,30.95-2.22v16.64h-10.1c-.18-2.69-.34-5.08-.52-7.79-14.64,1.08-28.7,2.11-43.51,3.2ZM392.48,392.68c0-7.44.04-14.41,0-21.37-.1-13.52-5.12-18.89-18.45-18.06-19.93,1.25-39.84,2.94-59.7,5.05-11.33,1.2-17.48,7.82-17.42,19.78.07,14.15-.34,28.31-.41,42.47-.08,15.71,4.68,20.28,20.42,19.46,10.57-.55,21.13-1.46,31.89-2.22v16.22c-3.29.23-6.36.45-9.69.69-.19-2.85-.36-5.26-.55-8.18-14.28,1.04-28.27,2.06-42.84,3.12,0,8.49.11,16.3-.03,24.1-.2,10.81,5.36,16.61,15.78,16.16,21.62-.94,43.24-2.3,64.77-4.35,10.58-1.01,16.57-7.46,16.36-18.92-.28-14.99-.06-29.98-.07-44.98,0-15.11-5.3-20.1-20.36-19.07-10.87.74-21.73,1.59-32.58,2.39v-16.05c3.41-.28,6.34-.51,9.51-.77.21,2.82.39,5.21.59,7.92,14.3-1.14,28.2-2.24,42.8-3.4ZM17.95,264.13c-1.84,31.82-3.68,63.03-5.42,94.24-.66,11.94,3.98,16.25,16.09,15.26,8.72-.72,17.44-1.5,26.65-2.29-.18,2.75-.31,4.8-.45,6.95-14.87,1.3-29.21,2.54-43.72,3.81-.52,9.67-1.02,18.73-1.54,28.39,22.7-1.94,44.75-3.52,66.73-5.84,9.09-.96,13.86-6.81,14.22-16.34.9-23.78,2.12-47.54,3.19-71.31.9-20.03,1.78-40.06,2.69-60.62-12.24,1.22-23.72,2.37-35.29,3.52-1.44,28.06-2.85,55.44-4.28,83.17-2.76.22-5.17.41-8.28.66,1.42-27.74,2.82-55.06,4.26-83-11.84,1.16-23.04,2.26-34.84,3.41ZM668.85,199.51c1.8,40.05,3.57,79.5,5.36,119.24,14.37-1.24,27.86-2.4,41.77-3.59-1.55-30.42-3.06-60.19-4.57-89.99,3.64-.35,6.42-.63,9.77-.95,1.61,30.09,3.21,59.87,4.83,90.11,14.42-1.24,28.1-2.41,42.23-3.62-2.07-34.97-4.19-69.46-6.09-103.97-.54-9.72-5.73-14.16-14.94-14.37-13.01-.29-25.32,2.51-36.66,9.8-.4-2.39-.73-4.3-1.12-6.64-13.41,1.32-26.6,2.62-40.58,3.99ZM469.42,209.42V42.22c-19.9,2.41-38.29,4.64-56.17,6.81v166.07c19.6-1.98,38.42-3.88,56.17-5.67ZM418.54,281.98c.13,0,.26,0,.39,0,0,13.15-.05,26.29.01,39.44.07,14.01,4.82,18.46,18.86,17.39,17.09-1.31,34.16-2.75,51.22-4.32,13.37-1.23,18.35-6.76,18.12-19.93-.48-27.45-1.2-54.9-1.51-82.35-.12-10.51-5.59-15.25-15.28-14.53-19.22,1.45-38.43,3.28-57.55,5.72-9.29,1.19-14.63,6.87-14.36,17.16.36,13.8.09,27.62.09,41.43ZM275.53,238.29v114.3c11.82-1.02,23.99-2.08,36.86-3.19v-46.21c3.47-.2,6.18-.36,9.2-.53v46c12.93-1.11,25.42-2.18,38.21-3.27,0-15.56-.07-30.36.04-45.16.04-5.27-.42-10.1-7.24-12.49,6.71-2.85,7.25-7.9,7.16-13.45-.17-9.82-.08-19.64-.04-29.46.03-8.16-4.26-13.16-12.11-12.64-23.68,1.57-47.31,3.94-72.06,6.1ZM231.74,242.97v84.74c-3.96.23-6.37.36-8.25.47v-84.42c-11.59,1.17-23.41,2.36-38.45,3.87,0,32.4.27,64.47-.15,96.54-.14,11.13,5.22,15.33,15.19,14.69,17.27-1.11,34.53-2.53,51.74-4.32,11.02-1.14,16.86-7.22,16.59-18.99-.28-11.97.45-23.96.52-35.94.1-20.06.03-40.13.03-60.36-11.63,1.17-23.51,2.36-37.21,3.73ZM99.66,312.31c-.58,12.97-.82,25.96-1.83,38.89-.89,11.37,4.68,15.79,15.07,15.07,16.77-1.16,33.52-2.61,50.24-4.31,10.67-1.08,16.09-6.98,16.3-18.18.5-26.45,1.31-52.9,2.44-79.34.45-10.51-3.92-15.65-14.25-14.79-17.41,1.45-34.81,3.12-52.14,5.27-8.6,1.07-13.63,6.39-13.99,15.5-.57,13.96-1.23,27.92-1.84,41.89ZM549.53,474.39v-135.98c-16.49,1.38-30.98,2.59-44.33,3.7v135.22c16.27-1.08,30.98-2.06,44.33-2.95ZM247.48,494.71c12.89-.87,26.75-1.8,41.78-2.81v-131.72c-13.15,1.11-26.71,2.26-41.78,3.53v131Z"/>
      <path class="cls-1" d="M617,24.43c20.04-2.41,39.3-4.73,58.94-7.09.33,3.34.62,6.21.99,9.86,14.41-10.4,30.47-14.02,47.16-15.68,19.47-1.94,27.16,4.58,28.28,23.85,2.7,46.39,5.47,92.78,8.2,139.16.1,1.64.01,3.29.01,5.71-20.27,2.04-40.51,4.07-61.42,6.17-2.16-43.02-4.28-85.51-6.45-128.79-4.84.52-9.34,1-14.5,1.55,2.02,42.94,4.01,85.44,6.04,128.73-20.18,2.03-40.14,4.03-60.81,6.11-2.14-56.47-4.28-112.74-6.43-169.59Z"/>
      <path class="cls-1" d="M608.39,74.97c-19.25,2.21-38.35,4.41-57.79,6.64-.12-2.48-.22-4.59-.35-7.41-4.53.44-8.88.86-12.67,1.22v84.23c5.69-.62,10.09-1.1,14.05-1.53v-61.46c18.71-2.12,37.98-4.31,59.4-6.75v105.31c-21.49,2.16-44.76,4.56-68.05,6.83-13.74,1.33-27.49,3.07-41.27,3.49-15.24.46-21.52-6.44-21.71-21.51-.51-39.64-1.16-79.27-1.64-118.91-.18-15.22,5.23-23.52,20.06-25.74,29.28-4.38,58.74-7.87,88.23-10.5,14.68-1.31,20.49,5.49,21.17,20.57.36,7.98.63,15.96.93,23.93.01.31-.14.64-.37,1.58Z"/>
      <path class="cls-1" d="M403.3,101.22c-18.83,2.15-36.99,4.22-55.64,6.34v-9.74c-4.54.49-8.55.92-13.03,1.41v20.01c14.14-1.57,28.13-3.15,42.13-4.67,19.85-2.16,26.79,3.98,26.79,23.62,0,16.66,0,33.32,0,49.97,0,20.77-5.8,28.01-26.47,30.49-24.61,2.96-49.3,5.35-74.01,7.37-19.28,1.57-25.27-4.45-25.26-23.63,0-8.31,0-16.61,0-25.43,18.93-2.03,37.05-3.98,55.73-5.99v10.21c4.62-.47,8.65-.89,13.18-1.35v-20.51c-12.8,1.39-25.66,2.62-38.47,4.2-23.46,2.89-30.51-3.86-29.31-27.25.79-15.29.64-30.63.81-45.95.19-17.29,7.26-25.74,24.52-28,24.58-3.22,49.2-6.21,73.85-8.92,18.34-2.01,25.16,4.42,25.16,22.76,0,8.15,0,16.29,0,25.05Z"/>
      <path class="cls-1" d="M271.48,167.43c-24.32,2.65-46.3,5.04-68.83,7.49v20.02c3.81-.36,7.68-.73,12.05-1.15.23-3.4.43-6.48.68-10.16,17.84-1.92,35.64-3.83,54.32-5.84-.7,13.32,1.71,26.53-2.14,39.19-3.2,10.5-12.77,13.69-22.42,14.8-25.13,2.9-50.29,5.54-75.5,7.61-16.51,1.36-22.8-5.61-22.13-22.05,1.54-37.75,2.94-75.5,4.29-113.25.56-15.53,6.77-23.67,22.18-25.88,24.71-3.54,49.5-6.65,74.35-9.08,17.61-1.72,23.19,4.14,23.17,21.73-.02,25.44,0,50.89,0,76.57ZM204.3,114.01v22.76c4.24-.46,8.15-.89,12.41-1.35v-22.66c-4.04.41-7.8.79-12.41,1.26Z"/>
      <path class="cls-1" d="M28.57,95.56c26.54-3.22,52.78-6.47,79.04-9.54,7.57-.88,15.1-2.67,22.83-1.48,9.02,1.39,13.72,6.63,13.39,15.66-1.5,41.26-3.04,82.52-4.9,123.76-.53,11.74-8.37,18.46-19.13,19.83-33.15,4.22-66.41,7.53-100.4,11.28,3.08-53.48,6.11-106.25,9.18-159.51ZM78.43,128.64c-1.31,26.88-2.59,53.18-3.9,79.92,4.61-.52,8.35-.95,12.54-1.43,1.25-26.73,2.49-53.14,3.74-79.9-4.62.53-8.23.94-12.38,1.41Z"/>
      <path class="cls-1" d="M135.95,502.22c-15.51,1.05-28.71,1.95-42.71,2.9,1.9-43.14,3.77-85.76,5.66-128.92,13.3-1.13,26.47-2.24,39.83-3.38.11,2.44.2,4.39.29,6.31,15.76-7.95,31.47-14.53,48.17-2.08,12.7-10.85,27.46-13.66,43.62-8.13,4.76,1.63,8.68,5.53,8.71,10.67.26,38.42.14,76.84.14,115.64-16.32,1.09-29.82,2-42.52,2.85v-97.67c-2.02.12-4.94.29-10.03.59v97.76c-15.54,1.06-28.94,1.97-41.44,2.82v-97.08c-1.61.1-4.5.29-9.73.62v97.09Z"/>
      <path class="cls-1" d="M580.08,326.73c-17.18,1.46-33.58,2.85-50.62,4.29-7.42-38.48-14.78-76.69-22.25-115.47,13.86-1.38,27.03-2.69,40.66-4.04,3.72,20.21,7.37,40.04,11.71,63.66,2.97-24.23,5.48-44.7,8.04-65.62,13.19-1.31,26.2-2.6,39.65-3.94,3.87,20.3,7.69,40.33,12.17,63.79,2.85-24,5.3-44.69,7.8-65.77,12.99-1.28,25.66-2.53,39.19-3.86-5.12,40.49-10.16,80.32-15.29,120.88-16.84,1.45-33.64,2.89-50.78,4.36-3.81-18.47-7.51-36.44-11.91-57.73-3.08,21.92-5.7,40.51-8.36,59.45Z"/>
      <path class="cls-1" d="M776.39,459.02c-16.18,1.08-31.72,2.13-47.74,3.2-1.83-34.8-3.63-68.99-5.47-103.88-3.66.25-7.02.48-11.12.76,1.72,34.61,3.43,68.92,5.17,103.9-15.7,1.07-31.06,2.12-47.16,3.22-1.98-45.87-3.95-91.34-5.94-137.4,15.43-1.3,30.43-2.57,45.87-3.87.3,2.61.56,4.85.9,7.77,11.7-7.84,24.67-10.67,38.28-10.88,13.86-.22,19.37,4.99,20.2,18.82,2.34,39.21,4.66,78.42,7.03,118.37Z"/>
      <path class="cls-1" d="M661.56,398.91c0,15.96-.19,31.93.06,47.88.2,12.91-4.39,19.59-17.47,20.79-22.69,2.09-45.46,3.45-68.22,4.43-11,.47-17.33-5.22-17.58-16.95-.72-33.11-1.57-66.21-2.56-99.31-.32-10.69,4.96-17.37,14.91-18.51,23.12-2.64,46.35-4.65,69.59-5.93,10.91-.6,17.35,5.49,17.28,17.22-.11,16.79-.03,33.58-.03,50.38,1.34,0,2.69,0,4.03,0ZM613.2,435.14v-68.21c-4.78.46-8.12.78-10.38,1v67.79c4.6-.26,7.86-.44,10.38-.58Z"/>
      <path class="cls-1" d="M399.15,442.12c14.81-1.09,28.87-2.12,43.51-3.2.18,2.71.34,5.1.52,7.79h10.1v-16.64c-10.49.75-20.72,1.48-30.95,2.22-18.11,1.31-23.25-3.4-23.29-21.31-.03-13.99.03-27.98-.19-41.96-.17-10.78,5.25-17.62,15.44-18.78,21.97-2.51,44.05-4.32,66.12-5.59,10.41-.6,16.53,5.07,16.43,16.18-.07,7.64-.01,15.28-.01,23.57-14.45,1.16-28.94,2.32-43.58,3.5-.12-2.67-.23-4.97-.37-7.9-3.35.16-6.55.32-10.03.49v16.45c11.13-.83,22.16-1.53,33.15-2.49,15.47-1.36,21.46,3.97,21.68,19.5.21,14.98.21,29.98.83,44.95.49,11.75-5.44,18.43-16.22,19.47-22.19,2.15-44.47,3.53-66.74,4.48-10.7.45-16.71-5.34-16.44-16.69.19-7.8.04-15.61.04-24.04Z"/>
      <path class="cls-1" d="M392.48,392.68c-14.59,1.16-28.49,2.26-42.8,3.4-.2-2.71-.38-5.1-.59-7.92-3.16.26-6.1.49-9.51.77v16.05c10.84-.8,21.71-1.65,32.58-2.39,15.07-1.03,20.36,3.96,20.36,19.07,0,14.99-.21,29.99.07,44.98.21,11.47-5.77,17.92-16.36,18.92-21.54,2.05-43.16,3.4-64.77,4.35-10.42.46-15.98-5.35-15.78-16.16.14-7.81.03-15.62.03-24.1,14.57-1.06,28.55-2.08,42.84-3.12.2,2.91.36,5.33.55,8.18,3.33-.24,6.4-.46,9.69-.69v-16.22c-10.76.76-21.31,1.66-31.89,2.22-15.74.82-20.49-3.75-20.42-19.46.07-14.16.48-28.31.41-42.47-.06-11.96,6.09-18.58,17.42-19.78,19.86-2.1,39.77-3.8,59.7-5.05,13.33-.83,18.35,4.54,18.45,18.06.05,6.97,0,13.93,0,21.37Z"/>
      <path class="cls-1" d="M17.95,264.13c11.81-1.16,23.01-2.25,34.84-3.41-1.43,27.94-2.83,55.26-4.26,83,3.1-.25,5.51-.44,8.28-.66,1.43-27.73,2.83-55.11,4.28-83.17,11.57-1.15,23.05-2.3,35.29-3.52-.91,20.55-1.78,40.59-2.69,60.62-1.07,23.77-2.29,47.53-3.19,71.31-.36,9.53-5.13,15.38-14.22,16.34-21.98,2.32-44.03,3.9-66.73,5.84.52-9.66,1.01-18.71,1.54-28.39,14.52-1.26,28.85-2.51,43.72-3.81.14-2.16.27-4.2.45-6.95-9.21.8-17.92,1.58-26.65,2.29-12.11,1-16.75-3.32-16.09-15.26,1.73-31.21,3.58-62.42,5.42-94.24Z"/>
      <path class="cls-1" d="M668.85,199.51c13.98-1.37,27.16-2.67,40.58-3.99.4,2.34.72,4.25,1.12,6.64,11.35-7.29,23.65-10.09,36.66-9.8,9.21.21,14.4,4.65,14.94,14.37,1.9,34.51,4.03,69.01,6.09,103.97-14.13,1.21-27.81,2.38-42.23,3.62-1.62-30.24-3.22-60.02-4.83-90.11-3.35.33-6.14.6-9.77.95,1.51,29.79,3.03,59.56,4.57,89.99-13.91,1.2-27.4,2.36-41.77,3.59-1.79-39.74-3.56-79.19-5.36-119.24Z"/>
      <path class="cls-1" d="M469.42,209.42c-17.75,1.79-36.56,3.69-56.17,5.67V49.02c17.87-2.17,36.27-4.4,56.17-6.81v167.21Z"/>
      <path class="cls-1" d="M418.54,281.98c0-13.81.27-27.63-.09-41.43-.27-10.28,5.07-15.97,14.36-17.16,19.12-2.44,38.33-4.27,57.55-5.72,9.69-.73,15.16,4.02,15.28,14.53.31,27.45,1.03,54.9,1.51,82.35.23,13.18-4.75,18.7-18.12,19.93-17.06,1.57-34.14,3.02-51.22,4.32-14.04,1.07-18.79-3.38-18.86-17.39-.07-13.15-.01-26.29-.01-39.44-.13,0-.26,0-.39,0ZM466.61,306.8v-58.26c-3.54.43-6.24.75-8.52,1.03v57.9c3.4-.27,6.14-.48,8.52-.67Z"/>
      <path class="cls-1" d="M275.53,238.29c24.76-2.16,48.38-4.53,72.06-6.1,7.85-.52,12.14,4.48,12.11,12.64-.04,9.82-.12,19.64.04,29.46.09,5.55-.44,10.6-7.16,13.45,6.82,2.39,7.28,7.22,7.24,12.49-.1,14.8-.04,29.61-.04,45.16-12.79,1.1-25.28,2.17-38.21,3.27v-46c-3.01.17-5.72.33-9.2.53v46.21c-12.87,1.11-25.04,2.17-36.86,3.19v-114.3ZM321.54,279.51v-17.07c-2.98.32-5.56.6-8.42.91v16.85c2.96-.24,5.56-.45,8.42-.69Z"/>
      <path class="cls-1" d="M231.74,242.97c13.7-1.37,25.58-2.57,37.21-3.73,0,20.24.08,40.3-.03,60.36-.06,11.98-.79,23.97-.52,35.94.27,11.77-5.57,17.85-16.59,18.99-17.21,1.79-34.47,3.21-51.74,4.32-9.96.64-15.33-3.56-15.19-14.69.42-32.07.15-64.14.15-96.54,15.05-1.51,26.87-2.7,38.45-3.87v84.42c1.88-.11,4.29-.24,8.25-.47v-84.74Z"/>
      <path class="cls-1" d="M99.65,312.31c.62-13.96,1.28-27.92,1.85-41.88.37-9.1,5.4-14.43,13.99-15.5,17.33-2.15,34.74-3.82,52.14-5.27,10.33-.86,14.7,4.28,14.25,14.79-1.13,26.43-1.94,52.88-2.44,79.34-.21,11.21-5.64,17.1-16.3,18.18-16.72,1.69-33.48,3.14-50.24,4.31-10.39.72-15.96-3.7-15.07-15.07,1.01-12.93,1.25-25.92,1.82-38.89ZM143.99,335.5v-56.05c-1.82.19-4.35.46-8.07.85v55.69c1.73-.1,4.14-.25,8.07-.49Z"/>
      <path class="cls-1" d="M549.53,474.39c-13.34.89-28.06,1.87-44.33,2.95v-135.22c13.35-1.12,27.84-2.33,44.33-3.7v135.98Z"/>
      <path class="cls-1" d="M247.48,494.71v-131c15.07-1.27,28.63-2.42,41.78-3.53v131.72c-15.03,1.01-28.89,1.94-41.78,2.81Z"/>
      <path class="cls-5" d="M204.3,114.01c4.6-.47,8.37-.85,12.41-1.26v22.66c-4.26.46-8.16.89-12.41,1.35v-22.76Z"/>
      <path class="cls-7" d="M78.43,128.64c4.15-.47,7.76-.88,12.38-1.41-1.25,26.76-2.49,53.17-3.74,79.9-4.19.48-7.94.9-12.54,1.43,1.3-26.74,2.59-53.04,3.9-79.92Z"/>
      <path class="cls-6" d="M613.2,435.14c-2.53.14-5.78.32-10.38.58v-67.79c2.26-.22,5.61-.54,10.38-1v68.21Z"/>
      <path class="cls-4" d="M466.61,306.8c-2.38.19-5.12.4-8.52.67v-57.9c2.28-.28,4.98-.6,8.52-1.03v58.26Z"/>
      <path class="cls-8" d="M321.54,279.51c-2.86.23-5.46.45-8.42.69v-16.85c2.86-.31,5.43-.59,8.42-.91v17.07Z"/>
      <path class="cls-2" d="M143.99,335.5c-3.93.24-6.34.38-8.07.49v-55.69c3.72-.39,6.25-.66,8.07-.85v56.05Z"/>
    </g>
  </g>
</svg>