<?xml version="1.0" encoding="UTF-8"?>
<svg id="Layer_2" data-name="Layer 2" xmlns="http://www.w3.org/2000/svg" viewBox="0 0 390.66 388.34">
  <defs>
    <style>
      .cls-1 {
        fill: #fff;
        stroke-width: 0px;
      }
    </style>
  </defs>
  <g id="_Слой_8" data-name="Слой 8">
    <g>
      <path class="cls-1" d="M184.03,388.34c-5.66-.13-11.35-.52-16.91-1.16l.51-4.42c5.42.62,10.98,1,16.5,1.13l-.1,4.45ZM200.97,387.99l-.29-4.44c5.46-.35,11-.94,16.47-1.76l.66,4.4c-5.59.84-11.26,1.45-16.84,1.8ZM150.4,384.47c-5.52-1.16-11.04-2.6-16.4-4.27l1.33-4.25c5.22,1.63,10.6,3.03,15.99,4.17l-.92,4.36ZM234.44,382.98l-1.02-4.33c5.34-1.26,10.72-2.76,15.97-4.45l1.37,4.24c-5.36,1.73-10.85,3.26-16.31,4.54ZM118.08,374.36c-5.18-2.19-10.32-4.67-15.28-7.36l2.12-3.91c4.83,2.62,9.84,5.03,14.89,7.17l-1.73,4.1ZM266.64,372.61l-1.7-4.12c5.09-2.1,10.16-4.42,15.07-6.91l2.01,3.97c-5.01,2.54-10.19,4.92-15.38,7.06ZM88.3,358.2c-4.64-3.13-9.21-6.54-13.59-10.14l2.82-3.44c4.27,3.51,8.73,6.83,13.25,9.89l-2.49,3.69ZM296.81,357.31l-2.32-3.8c4.71-2.87,9.35-5.96,13.8-9.18l2.61,3.61c-4.54,3.29-9.28,6.44-14.09,9.38ZM324.2,337.46l-2.89-3.38c4.2-3.59,8.28-7.38,12.14-11.27l3.16,3.13c-3.95,3.98-8.12,7.85-12.41,11.52ZM62.12,336.73c-3.97-3.91-7.85-8.08-11.54-12.39l3.38-2.89c3.61,4.22,7.41,8.29,11.28,12.11l-3.12,3.17ZM348.03,313.43l-3.41-2.86c3.55-4.24,6.93-8.66,10.06-13.15l3.65,2.55c-3.2,4.59-6.67,9.11-10.29,13.45ZM40.1,311.04c-3.25-4.48-6.42-9.21-9.41-14.05l3.79-2.34c2.93,4.75,6.04,9.38,9.23,13.78l-3.6,2.61ZM367.38,285.66l-3.87-2.21c2.74-4.79,5.27-9.75,7.53-14.73l4.05,1.84c-2.31,5.1-4.91,10.18-7.71,15.1ZM22.32,282.35c-2.72-4.99-5.22-10.11-7.45-15.22l4.08-1.78c2.17,4.99,4.62,9.99,7.28,14.87l-3.91,2.13ZM381.36,254.79l-4.21-1.44c1.78-5.2,3.33-10.54,4.59-15.87l4.33,1.03c-1.3,5.47-2.88,10.95-4.71,16.29ZM8.8,251.3c-1.78-5.38-3.31-10.87-4.56-16.34l4.34-.99c1.21,5.33,2.71,10.68,4.44,15.93l-4.23,1.4ZM389.18,221.84l-4.41-.6c.74-5.42,1.23-10.96,1.44-16.46l4.45.17c-.22,5.64-.72,11.33-1.48,16.88ZM1.29,218.26c-.71-5.59-1.14-11.29-1.29-16.92l4.45-.12c.15,5.49.57,11.03,1.26,16.48l-4.42.56ZM386.08,188.25c-.3-5.44-.85-10.98-1.66-16.47l4.4-.64c.82,5.62,1.39,11.29,1.69,16.86l-4.44.24ZM4.82,184.7l-4.44-.32c.4-5.6,1.08-11.27,2.03-16.84l4.39.74c-.92,5.44-1.59,10.96-1.98,16.42ZM381.32,155.52c-1.24-5.3-2.74-10.67-4.44-15.96l4.24-1.36c1.74,5.41,3.26,10.9,4.54,16.31l-4.33,1.02ZM10.33,152.13l-4.3-1.15c1.45-5.4,3.18-10.84,5.13-16.15l4.18,1.54c-1.91,5.19-3.6,10.49-5.01,15.77ZM371.22,123.97c-2.04-5.03-4.32-10.13-6.77-15.15l4-1.95c2.5,5.11,4.82,10.31,6.9,15.43l-4.12,1.67ZM21.74,121.1l-4.03-1.9c2.38-5.06,5.03-10.1,7.87-15l3.85,2.23c-2.77,4.79-5.36,9.72-7.69,14.66ZM38.33,92.46l-3.65-2.54c3.2-4.6,6.63-9.14,10.21-13.5l3.44,2.82c-3.51,4.27-6.87,8.71-10,13.22ZM59.34,66.86l-3.21-3.09c3.89-4.04,8-7.99,12.2-11.73l2.96,3.33c-4.12,3.66-8.14,7.53-11.95,11.49ZM84.1,44.85l-2.69-3.55c4.49-3.4,9.16-6.66,13.88-9.69l2.4,3.75c-4.62,2.97-9.2,6.16-13.59,9.49ZM285.99,27.77c-4.79-2.78-9.72-5.36-14.67-7.65l1.88-4.04c5.07,2.35,10.12,4.99,15.03,7.84l-2.24,3.85ZM112,26.97l-2.1-3.93c4.98-2.66,10.12-5.13,15.25-7.36l1.77,4.08c-5.03,2.17-10.05,4.59-14.92,7.2ZM256.01,13.88c-5.19-1.83-10.52-3.43-15.84-4.73l1.06-4.32c5.45,1.34,10.92,2.98,16.25,4.86l-1.48,4.2ZM142.38,13.85l-1.42-4.22c5.37-1.8,10.85-3.38,16.28-4.68l1.04,4.33c-5.31,1.28-10.66,2.82-15.91,4.57ZM174.53,6.13l-.64-4.4c5.6-.82,11.27-1.38,16.86-1.67l.23,4.44c-5.45.28-10.99.83-16.45,1.63ZM223.96,5.99c-5.42-.78-10.96-1.3-16.45-1.55l.2-4.45c5.64.25,11.32.79,16.89,1.59l-.63,4.41Z"/>
      <path class="cls-1" d="M343.9,3.11c57.12.98,57.11,85.94,0,86.9-57.11-.98-57.11-85.93,0-86.9Z"/>
      <g>
        <path class="cls-1" d="M189.13,286.65c-.45.18-.9.36-1.35.55-.03.25-.06.51-.09.76,3.76,1.09,7.49,2.27,11.29,3.19.93.23,2.06-.4,3.1-.64-.8-.61-1.51-1.53-2.41-1.76-3.47-.89-6.58-3.72-10.55-2.1Z"/>
        <path class="cls-1" d="M201.63,230.11c-2.87,3.14-5.74,6.27-8.6,9.41,4.96-.99,6.44-5.51,8.6-9.41Z"/>
        <path class="cls-1" d="M171.21,130.18c-17.1,5.48-31.96,14.2-39.44,31.35-5.2,11.94-8.95,24.52-13.34,36.81.31.27.61.54.92.81,1.14-.3,2.31-.51,3.41-.92,10.96-4.06,21.89-8.22,32.88-12.19,2.53-.91,3.22-2.8,3.55-5,.86-5.85,1.64-11.71,2.39-17.57,1.05-8.11,2.95-15.86,8.02-22.61,2.41-3.21,4.2-6.9,6.27-10.37-.22-.27-.44-.54-.66-.8-1.34.15-2.74.08-4,.49Z"/>
        <path class="cls-1" d="M244.32,189.18l1.49-.12v-14.22c-.73-.18-1.44-.37-2.15-.57-.09,3.75-.06,7.5-.01,11.25.02,1.22.44,2.44.67,3.66Z"/>
        <path class="cls-1" d="M154.39,206.86c.46-1.28,8.92-6.12,10.3-5.89,1.9.31,3.79.68,5.69.95.32.05.68-.24,1.95-.72-1.58-.97-2.53-1.93-3.65-2.18-3.5-.77-7.04-1.47-10.61-1.76-1.31-.1-3.33.67-3.96,1.7-2.08,3.41-5.32,4.25-8.78,4.81-5.2.84-10.42,1.56-15.62,2.38-1.36.21-2.7.61-4.04.93-.11.4-.22.8-.34,1.2,1.66.7,3.33,2.03,4.97,1.99,5.83-.11,11.56-.46,16.64,3.33.39.29,2.11-1.19,2.89-1.65,1.25,7.06,2.51,15.2,9.21,20.81l.88-.42c-.44-.83-.81-1.72-1.34-2.49-4.56-6.67-4.87-14.19-4.38-21.87.02-.38.06-.78.19-1.14Z"/>
        <path class="cls-1" d="M227.55,250.69c-5.51-2.51-8.56-6.67-10.19-12.22-.2-.67-.51-1.3-.77-1.95.53,4.76,1.08,9.81,5.63,12.3,5.81,3.17,11.91,5.88,18.09,8.27,3.87,1.5,7.16-.81,10.15-3.21,5.58-4.45,6.29-11.26,9.13-17.03l-1.15-.63c-1.13,2.06-2.5,4.03-3.35,6.2-5.61,14.27-16.74,13.19-27.54,8.28Z"/>
        <path class="cls-1" d="M177.64,131.32c-1.06,1.44-1.74,3.17-2.81,4.6-7.74,10.36-11.05,22.16-11.66,34.91-.18,3.84-.86,7.66-1.38,12.05.08.15.43.75.77,1.35.56-.44,1.41-.78,1.61-1.35.57-1.56,1.04-3.19,1.23-4.84.71-5.87.98-11.8,2.01-17.61.78-4.34,2.09-8.69,3.88-12.71,1.77-3.96,4.48-7.49,6.69-11.25.78-1.32,1.4-2.75,1.9-4.19.21-.61-.09-1.4-.16-2.1-.71.37-1.67.56-2.09,1.14Z"/>
        <path class="cls-1" d="M171.79,232.91c4.2.83,8.4,1.63,12.6,2.44.19-.3.37-.6.56-.91-2.1-3.45-4.39-6.8-6.26-10.37-1.95-3.71-3.69-7.56-5.14-11.48-.83-2.24-1.86-3.73-4.23-4.44-1.42-.42-2.57-1.71-3.99-2.14-1.44-.43-3.48-.9-4.48-.21-1.01.69-1.47,2.77-1.47,4.24-.01,2.75.71,5.51.71,8.26,0,6.98,4.91,13.26,11.7,14.6Z"/>
        <path class="cls-1" d="M99.21,308.54c.97.83,1.95,1.64,2.94,2.45.48-.6,1.06-1.2,1.51-1.83-2.17-2.42-3.18-2.74-4.45-.61Z"/>
        <path class="cls-1" d="M248.12,186.73c.11,1.63,1.23,3.43,2.4,4.68.64.68,2.34.37,3.57.51-.04-.98-.09-1.95-.1-2.93-.07-4.31-.17-8.61-.19-12.92-2.14-.16-4.19-.44-6.16-.83.11,3.83.24,7.67.49,11.49Z"/>
        <path class="cls-1" d="M112.87,212.03c-1.79-.18-4.7.99-5.46,2.43-1.87,3.54-3.88,7.59-3.84,11.41.06,6.87,1.03,13.87,2.69,20.55.94,3.76,3.56,7.41,6.26,10.34,3.03,3.29,4.96,2.51,5.75-1.89,1.14-6.29,1.93-12.64,2.88-18.97.22-1.47.49-2.93.83-4.98.62,4.99,1.51,9.29,1.58,13.61.06,4.18.12,8.69-1.29,12.51-4.73,12.8-2.18,24.34,5.14,35.11,11.44,16.82,26.47,29.75,44.66,38.72,8.84,4.35,17.8,3.31,25.63-3.11,9.98-8.18,19.41-16.93,25.34-28.67,2.6-5.15,4.66-10.56,7.19-15.75,2.25-4.62,4.82-9.07,7.18-13.63.65-1.25,1.21-2.58,1.54-3.94,1.24-5.02.36-5.25-4.36-6.92-5.97-2.11-11.74-5.08-17.12-8.45-3.46-2.17-4.6-6.32-4.74-10.53-.07-2.17.04-4.53-.78-6.43-.65-1.51-2.47-3.2-4-3.45-1.29-.21-3.15,1.29-4.28,2.48-1.01,1.05-1.42,2.7-2,4.13-1.94,4.83-5.54,7.39-10.69,7.35-12.04-.07-23.62-2.33-33.64-9.31-3.11-2.16-5.03-6.04-7.46-9.15-1.25-1.6-2.15-3.7-3.74-4.78-2.29-1.55-5.1-3.31-7.63-3.21-1.87.07-3.64,2.94-5.42,4.61-1.87,1.75-3.64,3.61-5.57,5.29-1.62,1.42-2.71,1.48-3.42-1.12-.87-3.18-2.35-6.19-3.55-9.28-1.35-3.5-4.55-4.67-7.67-4.98ZM206.18,306.39c-.41.46-1.08.68-1.59,1.06-1.82,1.36-4.8,2.51-5.15,4.19-.46,2.24-1,2.14-2.71,2.04-1.27-.08-3.72.6-3.71.71.37,3.14-2.74,3.18-3.64,4.57-.82-2.84-.74-6.97-2.66-8.37-5.13-3.74-4.75-9.48-7.28-14.07l.89-.65c1.97,1.33,3.85,2.83,5.94,3.95,5.82,3.12,12.1,4,18.64,3.58.85-.05,1.75.55,2.63.85-.45.72-.81,1.51-1.36,2.13ZM203.06,292.21c-9.45-1.43-18.84-3.71-28.53-2.95-.19.02-.4-.28-1.06-.76,4.01-1.19,7.6-2.61,11.32-3.26,3.45-.6,7.21-1.08,10.54-.32,4.05.92,7.9,2.99,11.64,4.95,2.66,1.39,5.53,2.9,6.39,5.9-3.53-1.26-6.82-3.04-10.31-3.56ZM213.71,291.64c-.94-7.05-4.49-9.81-10.61-9.82-1.81,0-3.68-1.01-5.41-1.81-4.71-2.18-8.96-1.62-12.86,1.79-1.29,1.12-2.58,2.24-3.87,3.36,1.92-6.58,9.05-10.15,15.05-8.19,3.4,1.11,6.74,2.5,10.22,3.26,5.41,1.18,8.05,4.54,7.48,11.42ZM213.95,262.67c.84-.15,2.01,1.56,3.04,2.42-1.04.68-2.05,1.88-3.12,1.94-2.08.1-4.19-.44-6.29-.71-.15-.38-.29-.77-.44-1.15,2.26-.89,4.47-2.08,6.81-2.5ZM184.55,259.29c.54-2.48,2.4-4.68,3.68-7l1.05.57c-.75,1.82-1.74,3.59-2.15,5.48-.17.8.86,1.87,1.35,2.82.58-.36,1.5-.59,1.69-1.09.9-2.39,2.9-3.33,4.88-2.53,2.35.95,4.34,2.8,6.4,4.38.13.1-.54,1.83-.9,1.86-3.91.25-7.84.55-11.74.34-2.69-.15-4.85-2.09-4.25-4.83ZM184.93,268.43c1.92.04,3.86.27,5.76.11,7.37-.63,8.56-.03,11.55,5.91,2.95-.79,5.6-2.25,8.03-1.95,2.38.29,4.69,2.18,6.78,3.7,2.25,1.64,2.23,8.16-.05,11.57-.66-1.47-1.1-2.79-1.8-3.95-1.66-2.75-2.85-5.73-7.17-5.69-3.05.03-6.86-.55-8.98-2.4-2.71-2.37-5.74-2.16-7.92-1.55-5.25,1.47-11.13,1.75-15.35,5.99-.23.23-.65.26-1.13.44v-3.15c-.94,1.42-1.6,2.41-2.52,3.79.08-6.36,6.97-12.96,12.79-12.83ZM115.82,248.33c-1.25-2.72-2.28-5.11-3.42-7.44-1.86-3.81-.33-7.36,3.42-7.98v15.42ZM118.49,227.36c-1.51-1.84-3.03-3.68-4.86-5.92-2.66,4.11-4.9,7.55-7.1,10.95.21-2.88.24-6.31.77-9.68.32-2.06,1.39-4,2.12-6,1.61.93,3.4,1.65,4.79,2.84,2.29,1.95,4.36,4.19,5.29,7.05-.33.25-.67.5-1,.75Z"/>
        <path class="cls-1" d="M186.68,342.21c.67-2,.08-2.95-2.65-2.7-10.32.92-19.55-2.74-26.98-9.21-10.71-9.33-20.51-19.73-30.56-29.81-4.9-4.91-6.99-11.26-8.3-17.92-.33-1.7-.88-3.36-1.6-6.02-.89,1.66-1.45,2.33-1.62,3.09-2.58,11.77-5.09,23.55-7.65,35.33,20.85,15.21,47.29,25.23,79.35,27.24Z"/>
        <path class="cls-1" d="M195.43,45.86C43.83,48.45,10.11,224.33,94.22,304.05c1.55-2.15,3.7-3.51,7.32-2.83,2.44.45,2.89-1.5,3.36-3.31,2.69-10.28,5.39-20.56,8.14-30.83.82-3.05.4-5.18-2.6-7.15-2.45-1.61-4.77-4.17-5.94-6.84-4.49-10.28-6.3-21.1-5-32.35.76-6.61,3.84-11.8,8.98-16,1.67-1.36,3.24-3.31,3.94-5.32,3.45-9.81,6.7-19.7,9.81-29.63,3.82-12.18,10.33-22.67,19.78-31.17,12.67-11.41,27.13-18.09,44.67-15.08,9.2,1.58,18.37,3.36,27.54,5.08,1.73-20.01,15.94-38.84,42.65-39.29,56.45.96,57.09,83.97,1.95,86.82-.03,4.07.07,8.14-.04,12.21-.08,2.69.95,4.12,3.45,5.25,6.19,2.81,12.42,5.64,18.27,9.08,7.93,4.68,14.74,10.69,19.14,19.06,3.65,6.97,3.1,13.62-1.27,20-4.48,6.55-11.1,10.13-18.63,11.25-6.8,1.02-13.81.63-20.72,1.01-1.56.09-3.21.55-4.6,1.28-2.7,1.41-5.11,3.42-7.89,4.62-2.59,1.13-4.16,2.59-4.87,5.39-1.77,7.01-4.3,13.7-8.61,19.64-1.34,1.85-2.42,3.99-3.18,6.14-5.84,16.55-16.4,29.41-30.42,39.72-5.73,4.21-5.58,4.41-3.23,10.91.1.27.15.55.2.83,194-4.3,193.64-293.37-1-296.67Z"/>
        <path class="cls-1" d="M297.7,230.94c-.31-1.78-.37-3.65-.97-5.33-2.42-6.8-7.29-11.77-12.96-15.87-12.63-9.16-26.74-14.95-41.89-18.75-14.78-3.7-29.65-6.05-44.85-6.48-2.73-.08-5.47-.01-8.2-.01,0,.44,0,.89,0,1.33,1.32.09,2.64.1,3.95.28,15.22,2.14,30.67,3.34,45.6,6.77,10.99,2.53,21.54,7.46,31.85,12.28,11.66,5.45,22.17,12.63,26.1,26.2.46-.14.92-.28,1.37-.42Z"/>
        <path class="cls-1" d="M271.22,233.68c-5.95-.56-5.92-.85-8.08,4.63-.56,1.43-1.15,2.85-1.69,4.29-1.73,4.57-1.22,5.33,3.72,5.51.77.03,1.54,0,3.19,0,7.36-.6,15.51-1.54,22.25-6.99.95-.77,1.4-2.16,2.09-3.27-1.36-.84-2.94-2.62-4.04-2.36-6.09,1.44-11.64-1.26-17.44-1.81Z"/>
        <path class="cls-1" d="M186.29,130.77c-2.9-.64-4.38.24-5.7,2.94-2.31,4.72-5.13,9.19-7.8,13.74-2.59,4.41-3.98,9.05-4.21,14.24-.26,5.89-1.16,11.76-1.85,17.63-.46,3.93.12,4.68,4.08,4.18,19.46-2.42,38.74-1.27,57.89,2.67,3.14.65,6.26,1.43,9.36,2.28,2.5.68,3.74-.18,3.76-2.73.04-3.85,0-7.71,0-11.01.04-.33.07-.64.11-.97-17.78-6.03-27.06-22.13-27.84-38.69-4.24-.43-8.47-.87-12.69-1.43-5.08-.68-10.12-1.74-15.13-2.85Z"/>
      </g>
    </g>
  </g>
</svg>