<?xml version="1.0" encoding="utf-8"?>
<!-- Generator: Adobe Illustrator 28.1.0, SVG Export Plug-In . SVG Version: 6.00 Build 0)  -->
<svg version="1.1" id="Layer_1" xmlns="http://www.w3.org/2000/svg" xmlns:xlink="http://www.w3.org/1999/xlink" x="0px" y="0px"
	 viewBox="0 0 756.96 473.36" enable-background="new 0 0 756.96 473.36" xml:space="preserve">
<path fill="#A0616A" d="M654.23,315.88c-2.9-4.73-1.42-10.93,3.31-13.83c0.5-0.31,1.04-0.57,1.59-0.79l-1.42-35.71l15.9,9.6
	l-1.09,32.44c1.69,5.32-1.25,11.01-6.57,12.7C661.49,321.7,656.65,319.87,654.23,315.88L654.23,315.88z"/>
<path fill="#1D908D" d="M675.45,292.73l-14.13,2.26c-2.45,0.39-4.76-1.28-5.15-3.73c-0.01-0.04-0.01-0.08-0.02-0.12l-5.98-45.03
	l-29.54-40.43c-4.42-6.06-3.1-14.55,2.95-18.98c0.23-0.17,0.46-0.33,0.7-0.48l0,0c6.32-4.04,14.72-2.19,18.75,4.13l30.17,47.22
	l6.01,50.18c0.04,0.32,0.04,0.64,0.01,0.96C679.03,290.76,677.47,292.41,675.45,292.73z"/>
<polygon fill="#A0616A" points="626.72,459.86 614.47,459.86 608.63,412.58 626.73,412.58 "/>
<path fill="#082658" d="M605.71,456.36h23.64l0,0v14.89l0,0h-38.53l0,0l0,0C590.82,463.02,597.49,456.36,605.71,456.36z"/>
<polygon fill="#A0616A" points="678.45,438.88 669.29,447.03 635.15,413.36 647.02,403.55 "/>
<path fill="#082658" d="M660.42,450.23l17.67-15.71l0,0l9.89,11.12l0,0l-28.79,25.61l0,0l0,0
	C653.73,465.1,654.28,455.69,660.42,450.23z"/>
<path fill="#A0616A" d="M503.52,189.46c5.41-1.26,10.82,2.1,12.08,7.51c0.13,0.58,0.22,1.16,0.25,1.76l34.33,9.93l-14.13,12.05
	l-30.43-11.28c-5.58-0.08-10.05-4.67-9.97-10.25C495.71,194.51,498.97,190.49,503.52,189.46L503.52,189.46z"/>
<circle fill="#A0616A" cx="610.55" cy="130.63" r="24.56"/>
<path fill="#082658" d="M628.23,451.01l-17.06-1.37c-2.28-0.18-4.06-2.05-4.14-4.34l-4.76-143.83c-0.08-2.3,1.59-4.29,3.88-4.61
	l34.02-4.75c2.46-0.34,4.73,1.37,5.08,3.83c0.06,0.46,0.06,0.92-0.02,1.38l-13.02,76.25c-0.04,0.21-0.05,0.42-0.05,0.63l0.94,72.25
	c0.03,2.49-1.96,4.53-4.44,4.56c-0.02,0-0.04,0-0.06,0C628.47,451.02,628.35,451.02,628.23,451.01z"/>
<path fill="#082658" d="M650.08,433.76l-58.62-65.24c-0.85-0.95-1.26-2.22-1.13-3.48l7.4-69.41c0.25-2.4,2.36-4.18,4.77-4.01
	l35.98,2.4c2.48,0.17,4.36,2.31,4.19,4.79c-0.03,0.39-0.1,0.77-0.23,1.14l-21.56,63.77c-0.42,1.24-0.11,2.61,0.8,3.55l49.79,51.6
	c1.73,1.79,1.67,4.64-0.11,6.36c-0.25,0.24-0.53,0.46-0.84,0.64l-14.82,8.76C653.87,435.71,651.52,435.35,650.08,433.76z"/>
<path fill="#1D908D" d="M606.15,170.36c0,0,15-13,22-6c0,0,32.5,20.5,18.5,76.5c0,0,12,54,7,56s-55.5,9.5-59.5,3.5
	S588.15,202.36,606.15,170.36z"/>
<path fill="#1D908D" d="M518.78,216.9l2.32-14.12c0.4-2.45,2.72-4.11,5.17-3.71c0.04,0.01,0.08,0.01,0.12,0.02l44.61,8.55
	l47.69-15.26c7.14-2.28,14.79,1.65,17.07,8.8c0.09,0.27,0.16,0.54,0.23,0.81l0,0c1.84,7.27-2.57,14.65-9.84,16.49l-54.33,13.71
	l-49.51-10.15c-0.32-0.06-0.62-0.16-0.92-0.29C519.52,220.92,518.44,218.92,518.78,216.9z"/>
<path fill="#082658" d="M621.09,150.55c2.24-5.19,4.14-12.11-0.16-15.79c-2.5-2.13-6.09-2.13-9.37-2.4
	c-9.22-0.75-18.71-4.99-23.21-13.06s-1.99-20.08,6.51-23.73c5.73-2.46,12.3-0.78,18.29,0.92l18.01,5.11
	c5.35,1.52,10.97,3.19,14.82,7.2c6.14,6.4,5.68,17.21,0.8,24.62s-12.23,15.13-20.64,17.94L621.09,150.55z"/>
<path fill="#0E687D" d="M755.96,473.36h-248c-0.55,0-1-0.45-1-1s0.45-1,1-1h248c0.55,0,1,0.45,1,1S756.51,473.36,755.96,473.36z"/>
<path fill="#0E687D" d="M494,0H7C3.14,0,0,3.14,0,7v360c0,3.86,3.14,7,7,7h487c3.86,0,7-3.14,7-7V7C501,3.14,497.86,0,494,0z
	 M499,367c0,2.76-2.24,5-5,5H7c-2.76,0-5-2.24-5-5V7c0-2.76,2.24-5,5-5h487c2.76,0,5,2.24,5,5V367z"/>
<rect x="1" y="28.04" fill="#0E687D" width="499" height="2"/>
<circle fill="#0E687D" cx="18" cy="15" r="6"/>
<circle fill="#0E687D" cx="35.25" cy="15" r="6"/>
<circle fill="#0E687D" cx="52.5" cy="15" r="6"/>
<path fill="#0E687D" d="M301.82,311.3c-0.55,0-1-0.45-1-1v-41c0-0.55,0.45-1,1-1s1,0.45,1,1v41
	C302.82,310.86,302.38,311.3,301.82,311.3z"/>
<path fill="#0E687D" d="M300.45,253.3c-0.18,0-0.35-0.05-0.5-0.14l-56.82-33.1c-0.48-0.28-0.64-0.89-0.36-1.37
	c0.28-0.47,0.89-0.64,1.36-0.36l56.82,33.1c0.48,0.28,0.64,0.89,0.36,1.37C301.14,253.12,300.81,253.31,300.45,253.3z"/>
<path fill="#0E687D" d="M186.82,253.3c-0.55,0-1-0.45-1-1c0-0.36,0.19-0.69,0.5-0.87l56.81-33.1c0.48-0.28,1.09-0.12,1.37,0.36
	c0.28,0.48,0.12,1.09-0.36,1.37l-56.82,33.1C187.17,253.26,187,253.3,186.82,253.3z"/>
<path fill="#0E687D" d="M359.45,303.3c-0.18,0-0.35-0.05-0.5-0.14l-56.82-33.1c-0.48-0.28-0.64-0.89-0.36-1.37
	c0.28-0.47,0.89-0.64,1.36-0.36l56.82,33.1c0.48,0.28,0.64,0.89,0.36,1.37C360.14,303.12,359.81,303.31,359.45,303.3z"/>
<path fill="#0E687D" d="M245.82,303.3c-0.55,0-1-0.45-1-1c0-0.36,0.19-0.69,0.5-0.87l56.81-33.1c0.48-0.28,1.09-0.11,1.37,0.36
	c0.28,0.48,0.11,1.09-0.36,1.36l-56.82,33.1C246.17,303.26,246,303.3,245.82,303.3z"/>
<path fill="#0E687D" d="M243.82,202.3c-0.55,0-1-0.45-1-1l-0.09-36.39c0-0.55,0.45-1,1-1c0,0,0,0,0,0h0c0.55,0,1,0.45,1,1
	l0.09,36.39C244.82,201.85,244.38,202.3,243.82,202.3C243.83,202.3,243.83,202.3,243.82,202.3L243.82,202.3z"/>
<path fill="#CCCCCC" d="M256.76,221.22H230.7c-2.48,0-4.5-2.02-4.5-4.5v-13.38c0-2.48,2.02-4.5,4.5-4.5h26.05
	c2.48,0,4.5,2.02,4.5,4.5v13.38C261.25,219.2,259.24,221.22,256.76,221.22z"/>
<path fill="#0E687D" d="M213.64,153.2H158.2c-0.55,0-1-0.45-1-1s0.45-1,1-1h55.43c0.55,0,1,0.45,1,1S214.19,153.2,213.64,153.2z"/>
<path fill="#0E687D" d="M243.73,138.92c-0.55,0-1-0.45-1-1V103.3c0-0.55,0.45-1,1-1s1,0.45,1,1v34.61
	C244.73,138.47,244.28,138.92,243.73,138.92z"/>
<path fill="#0E687D" d="M136.64,153.2c-0.18,0-0.35-0.05-0.51-0.14l-53.82-31.9c-0.47-0.28-0.63-0.9-0.35-1.37
	c0.28-0.47,0.89-0.63,1.37-0.35l53.82,31.9c0.48,0.28,0.63,0.9,0.35,1.37C137.32,153.01,136.99,153.2,136.64,153.2z"/>
<path fill="#0E687D" d="M82.82,185.1c-0.55,0-1-0.45-1-1c0-0.35,0.19-0.68,0.49-0.86l53.82-31.9c0.48-0.28,1.09-0.12,1.37,0.35
	s0.12,1.09-0.35,1.37l-53.82,31.9C83.18,185.05,83,185.1,82.82,185.1z"/>
<path fill="#CCCCCC" d="M154.2,169.33h-13.38c-2.48,0-4.5-2.02-4.5-4.5v-26.05c0-2.48,2.02-4.5,4.5-4.5h13.38
	c2.48,0,4.5,2.02,4.5,4.5v26.05C158.7,167.31,156.69,169.33,154.2,169.33z"/>
<path fill="#CCCCCC" d="M256.76,106H230.7c-2.48,0-4.5-2.02-4.5-4.5V88.11c0-2.48,2.02-4.5,4.5-4.5h26.05c2.48,0,4.5,2.02,4.5,4.5
	v13.38C261.25,103.98,259.24,105.99,256.76,106z"/>
<path fill="#CCCCCC" d="M79.2,138.33H65.82c-2.48,0-4.5-2.02-4.5-4.5v-26.05c0-2.48,2.02-4.5,4.5-4.5H79.2c2.48,0,4.5,2.02,4.5,4.5
	v26.05C83.7,136.31,81.69,138.33,79.2,138.33z"/>
<path fill="#CCCCCC" d="M79.2,201.33H65.82c-2.48,0-4.5-2.02-4.5-4.5v-26.05c0-2.48,2.02-4.5,4.5-4.5H79.2c2.48,0,4.5,2.02,4.5,4.5
	v26.05C83.7,199.31,81.69,201.33,79.2,201.33z"/>
<path fill="#0E687D" d="M329.26,153.2h-55.43c-0.55,0-1-0.45-1-1s0.45-1,1-1h55.43c0.55,0,1,0.45,1,1S329.81,153.2,329.26,153.2z"/>
<path fill="#0E687D" d="M350.82,153.2c-0.55,0-1-0.45-1-1c0-0.35,0.19-0.68,0.49-0.86l53.81-31.9c0.48-0.28,1.09-0.12,1.37,0.35
	s0.12,1.09-0.35,1.37l-53.81,31.9C351.18,153.15,351,153.2,350.82,153.2z"/>
<path fill="#0E687D" d="M404.64,185.1c-0.18,0-0.35-0.05-0.51-0.14l-53.81-31.9c-0.48-0.28-0.63-0.89-0.35-1.37s0.89-0.63,1.37-0.35
	l53.81,31.9c0.48,0.28,0.63,0.89,0.35,1.37C405.32,184.91,404.99,185.1,404.64,185.1z"/>
<path fill="#CCCCCC" d="M346.64,169.33h-13.38c-2.48,0-4.5-2.02-4.5-4.5v-26.05c0-2.48,2.02-4.5,4.5-4.5h13.38
	c2.48,0,4.5,2.02,4.5,4.5v26.05C351.13,167.31,349.12,169.33,346.64,169.33z"/>
<path fill="#CCCCCC" d="M421.64,138.33h-13.38c-2.48,0-4.5-2.02-4.5-4.5v-26.05c0-2.48,2.02-4.5,4.5-4.5h13.38
	c2.48,0,4.5,2.02,4.5,4.5v26.05C426.13,136.31,424.12,138.33,421.64,138.33z"/>
<path fill="#CCCCCC" d="M421.64,201.33h-13.38c-2.48,0-4.5-2.02-4.5-4.5v-26.05c0-2.48,2.02-4.5,4.5-4.5h13.38
	c2.48,0,4.5,2.02,4.5,4.5v26.05C426.13,199.31,424.12,201.33,421.64,201.33z"/>
<path fill="#CCCCCC" d="M198.76,272.22H172.7c-2.48,0-4.5-2.02-4.5-4.5v-13.38c0-2.48,2.02-4.5,4.5-4.5h26.05
	c2.48,0,4.5,2.02,4.5,4.5v13.38C203.25,270.2,201.24,272.22,198.76,272.22z"/>
<path fill="#CCCCCC" d="M314.57,272.22h-26.05c-2.48,0-4.5-2.02-4.5-4.5v-13.38c0-2.48,2.02-4.5,4.5-4.5h26.05
	c2.48,0,4.5,2.02,4.5,4.5v13.38C319.07,270.2,317.06,272.22,314.57,272.22z"/>
<path fill="#CCCCCC" d="M261.57,321.22h-26.05c-2.48,0-4.5-2.02-4.5-4.5v-13.38c0-2.48,2.02-4.5,4.5-4.5h26.05
	c2.48,0,4.5,2.02,4.5,4.5v13.38C266.07,319.2,264.06,321.22,261.57,321.22z"/>
<path fill="#CCCCCC" d="M372.57,321.22h-26.05c-2.48,0-4.5-2.02-4.5-4.5v-13.38c0-2.48,2.02-4.5,4.5-4.5h26.05
	c2.48,0,4.5,2.02,4.5,4.5v13.38C377.07,319.2,375.06,321.22,372.57,321.22z"/>
<path fill="#CCCCCC" d="M314.57,321.22h-26.05c-2.48,0-4.5-2.02-4.5-4.5v-13.38c0-2.48,2.02-4.5,4.5-4.5h26.05
	c2.48,0,4.5,2.02,4.5,4.5v13.38C319.07,319.2,317.06,321.22,314.57,321.22z"/>
<path fill="#1D908D" d="M275.4,169.6h-63.34c-2.48,0-4.5-2.02-4.5-4.5V139.3c0-2.48,2.02-4.5,4.5-4.5h63.34c2.48,0,4.5,2.02,4.5,4.5
	v25.79C279.9,167.58,277.88,169.59,275.4,169.6z"/>
</svg>
