<?xml version="1.0" encoding="utf-8"?>
<!-- Generator: Adobe Illustrator 28.1.0, SVG Export Plug-In . SVG Version: 6.00 Build 0)  -->
<svg version="1.1" id="Layer_1" xmlns="http://www.w3.org/2000/svg" xmlns:xlink="http://www.w3.org/1999/xlink" x="0px" y="0px"
	 viewBox="0 0 880.16 576.27" enable-background="new 0 0 880.16 576.27" xml:space="preserve">
<circle fill="#52A97E" cx="435.55" cy="71.27" r="26.7"/>
<path fill="#E6E6E6" d="M495.31,58.62c-1.54-5.05-5.93-8.7-11.17-9.29c-0.06-0.01-0.12-0.01-0.18,0c-0.07-0.02-0.15-0.04-0.22-0.05
	c-8.94-1.16-18.88,1.66-25.57,7.8c-2.48,2.24-4.47,4.98-5.83,8.04c-2.52-3.44-6.57-5.41-10.83-5.28c-5.54,0.37-10.26,4.17-11.8,9.51
	c-0.17,0.65,0.11,1.34,0.69,1.69c0.8,0.69,1.76,1.17,2.79,1.42c2.21,0.47,4.44,0.9,6.67,1.29c4.36,0.76,8.74,1.38,13.15,1.85
	c2.91,0.31,5.83,0.56,8.75,0.74c6.04,0.38,12.11,0.47,18.16,0.28c3-0.1,5.88-0.2,8.62-1.52c2-0.98,3.7-2.47,4.95-4.31
	C495.87,67.21,496.54,62.75,495.31,58.62z"/>
<path fill="#E6E6E6" d="M440.38,97.52c-0.05-1.12-0.24-2.23-0.56-3.3c-1.55-5.05-5.94-8.69-11.18-9.29c-0.06-0.01-0.11-0.01-0.17,0
	c-0.08-0.02-0.15-0.04-0.23-0.05c-4.95-0.61-9.97-0.09-14.69,1.51c-7.26,2.43-13.63,7.33-16.7,14.33
	c-2.52-3.44-6.58-5.42-10.84-5.28c-5.54,0.37-10.26,4.17-11.8,9.51c-0.16,0.65,0.12,1.34,0.69,1.69c0.81,0.69,1.76,1.17,2.79,1.42
	c2.22,0.47,4.44,0.9,6.68,1.29c4.36,0.76,8.74,1.38,13.14,1.85c8.94,0.96,17.93,1.3,26.92,1.02c2.99-0.1,5.88-0.2,8.62-1.52
	c1.99-0.98,3.7-2.47,4.94-4.31C439.75,103.78,440.59,100.66,440.38,97.52z"/>
<path fill="#F2F2F2" d="M788.13,421.51c0.38,18.21-2.13,36.36-7.44,53.77c-0.19,0.63-0.41,1.27-0.63,1.9H670.5
	c1.57-7.71,4.05-15.21,7.41-22.33c9.12-19.35,24-35.91,38.7-52.36c20.24-22.66,40-45.14,43.13-74.61
	c8.02,12.23,14.43,25.45,19.05,39.33c-5.66,2.1-10.86,5.28-15.29,9.38c-1.23,1.15-2.53,2.83-1.9,4.43c0.6,1.34,2.23,1.79,3.68,2.08
	c3.5,0.67,7,1.34,10.49,1.97c2.75,0.56,5.54,1.08,8.34,1.6C786.57,398.14,787.91,409.8,788.13,421.51z"/>
<path fill="#F2F2F2" d="M880.16,409.45c-17.56,10.68-28.73,27.2-37.85,45.7c-7.93,1.81-15.26,5.66-21.25,11.16
	c-1.27,1.15-2.57,2.83-1.9,4.43c0.56,1.34,2.23,1.79,3.68,2.08c3.46,0.67,7,1.34,10.46,1.97c-0.33,0.78-0.67,1.6-1,2.38H716.2
	c5.27-7.11,11.11-13.78,17.45-19.95c1.38-1.38,2.79-2.68,4.24-4.02c14.8-13.38,31.79-24.1,50.24-31.71
	C817.19,409.37,848.96,405.2,880.16,409.45z"/>
<path fill="#F2F2F2" d="M735.55,477.18H632.17c-0.56-8.28-0.51-16.59,0.15-24.86c4.13-51.09,31.93-99.77,73.87-129.24
	c-5.36,19.09-2.6,38.07,2.98,57.12c-0.78,0.26-1.56,0.48-2.27,0.78c-5.66,2.1-10.86,5.28-15.29,9.38c-1.23,1.15-2.53,2.83-1.9,4.43
	c0.56,1.34,2.23,1.79,3.68,2.08c3.5,0.67,7,1.34,10.46,1.97c2.79,0.56,5.58,1.08,8.37,1.64c1.3,0.22,2.6,0.48,3.91,0.74
	c0.19,0.45,0.3,0.86,0.48,1.27c6.55,18.05,13.69,36.25,17.04,54.74c0.83,4.64,1.4,9.32,1.71,14.03
	C735.48,473.24,735.55,475.21,735.55,477.18z"/>
<path fill="#F2F2F2" d="M172.13,421.51c0.38,18.21-2.13,36.36-7.44,53.77c-0.19,0.63-0.41,1.27-0.63,1.9H54.5
	c1.57-7.71,4.05-15.21,7.41-22.33c9.12-19.35,24-35.91,38.7-52.36c20.24-22.66,40-45.14,43.13-74.61
	c8.02,12.23,14.43,25.45,19.05,39.33c-5.66,2.1-10.86,5.28-15.29,9.38c-1.23,1.15-2.53,2.83-1.9,4.43c0.6,1.34,2.23,1.79,3.68,2.08
	c3.5,0.67,7,1.34,10.49,1.97c2.75,0.56,5.54,1.08,8.34,1.6C170.57,398.14,171.91,409.8,172.13,421.51z"/>
<path fill="#F2F2F2" d="M264.16,409.45c-17.56,10.68-28.73,27.2-37.85,45.7c-7.93,1.81-15.26,5.66-21.25,11.16
	c-1.27,1.15-2.57,2.83-1.9,4.43c0.56,1.34,2.23,1.79,3.68,2.08c3.46,0.67,7,1.34,10.46,1.97c-0.33,0.78-0.67,1.6-1,2.38H100.2
	c5.27-7.11,11.11-13.78,17.45-19.95c1.38-1.38,2.79-2.68,4.24-4.02c14.8-13.38,31.79-24.1,50.24-31.71
	C201.19,409.37,232.96,405.2,264.16,409.45z"/>
<path fill="#F2F2F2" d="M119.55,477.18H16.17c-0.56-8.28-0.51-16.59,0.15-24.86c4.13-51.09,31.93-99.77,73.87-129.24
	c-5.36,19.09-2.6,38.07,2.98,57.12c-0.78,0.26-1.56,0.48-2.27,0.78c-5.66,2.1-10.86,5.28-15.29,9.38c-1.23,1.15-2.53,2.83-1.9,4.43
	c0.56,1.34,2.23,1.79,3.68,2.08c3.5,0.67,7,1.34,10.46,1.97c2.79,0.56,5.58,1.08,8.37,1.64c1.3,0.22,2.61,0.48,3.91,0.74
	c0.19,0.45,0.3,0.86,0.48,1.27c6.55,18.05,13.69,36.25,17.04,54.74c0.83,4.64,1.4,9.32,1.71,14.03
	C119.48,473.24,119.55,475.21,119.55,477.18z"/>
<path fill="#E6E6E6" d="M504.41,433.78l92.37,8.2l0.99,0.09V47.93c-0.33-0.23-0.66-0.46-0.99-0.69
	c-19.25-13.47-40.08-24.53-62.01-32.94l-4.72,65.1l-0.43,5.96l-4.67,64.56l-1.44,19.86l-18.93,261.7L504.41,433.78z"/>
<path fill="#E6E6E6" d="M275.98,40.59c-0.66,0.42-1.32,0.84-1.98,1.28v400.2l1.98-0.18l91.37-8.11l-0.17-2.3l-18.93-261.7
	l-1.44-19.86l-4.67-64.56l-0.43-5.96l-4.95-68.27C315.41,18.53,295.01,28.42,275.98,40.59z"/>
<path fill="#E6E6E6" d="M274,41.87c-1.33,0.86-2.66,1.74-3.97,2.63v403.03c0,10.07,5.97,18.51,13.95,20.66
	c1.3,0.35,2.65,0.53,4,0.53h296.8c1.35,0,2.69-0.18,3.99-0.53c2.97-0.82,5.65-2.43,7.78-4.66c4.05-4.33,6.27-10.07,6.18-16V51.51
	c-1.64-1.21-3.29-2.41-4.96-3.58c-0.33-0.23-0.66-0.46-0.99-0.69v400.29c0,1.3-0.15,2.59-0.46,3.85
	c-1.41,5.95-6.06,10.31-11.54,10.31h-296.8c-6.62,0-12-6.35-12-14.16V40.59C275.32,41.01,274.66,41.43,274,41.87z"/>
<rect x="273" y="79.4" fill="#E6E6E6" width="326.75" height="5.96"/>
<path fill="#E6E6E6" d="M499.68,3.39c-1.98-0.49-3.96-0.95-5.96-1.38v161.81h5.96V3.39z"/>
<path fill="#E6E6E6" d="M379.04,0c-1.99,0.37-3.98,0.75-5.96,1.16v162.66h5.96V0z"/>
<path fill="#E6E6E6" d="M208.94,458.29c0,3.42,0.65,6.81,1.93,9.98c0.49,1.23,1.08,2.42,1.75,3.56c0.87,1.49,1.88,2.89,3.02,4.18
	c5.08,5.79,12.41,9.11,20.12,9.11h391.31c14.81,0,26.82-12.01,26.82-26.82s-12.01-26.82-26.82-26.82H235.76
	C220.96,431.49,208.96,443.49,208.94,458.29z"/>
<rect x="273" y="149.92" fill="#E6E6E6" width="324.77" height="19.86"/>
<path fill="#E6E6E6" d="M449.29,154.88h-27.81l0,0l0,0c0-6.03,4.89-10.92,10.92-10.92h5.96
	C444.4,143.96,449.29,148.85,449.29,154.88C449.29,154.88,449.29,154.88,449.29,154.88L449.29,154.88L449.29,154.88z"/>
<path fill="#0D687D" d="M0,473.61c8.69,10.29,18.08,19.97,28.12,28.95H834.7c10.04-8.98,19.43-18.66,28.12-28.95H0z"/>
<path fill="#0A2658" d="M396.69,376.8v102.56h71.85V376.8c0-1.51-0.98-2.85-2.43-3.3c-0.33-0.11-0.68-0.16-1.03-0.16h-64.92
	C398.25,373.34,396.69,374.88,396.69,376.8C396.69,376.8,396.69,376.8,396.69,376.8z M424.73,412.04c0.04-4.24,3.5-7.64,7.74-7.6
	c4.18,0.04,7.56,3.42,7.6,7.6v11.9c-0.02,4.24-3.47,7.65-7.71,7.63c-4.21-0.02-7.61-3.43-7.63-7.63V412.04z"/>
<path fill="#0D687D" d="M396.47,476.08v9.89c0,1.07,0.86,1.93,1.93,1.94h68.43c1.07-0.01,1.93-0.87,1.93-1.94v-9.89H396.47z"/>
<path fill="#0D687D" d="M283.66,222.28v187.26c0,4.97,4.03,9,9,9h277.5c4.97,0,9-4.03,9-9V222.28c-0.01-4.96-4.04-8.98-9-8.99
	h-277.5C287.7,213.3,283.67,217.32,283.66,222.28z"/>
<path fill="#1C8F8C" d="M290.17,224.61v182.62c0,2.65,2.16,4.81,4.81,4.81h272.87c2.65,0,4.81-2.16,4.81-4.81V224.61
	c0-2.66-2.15-4.81-4.81-4.82H294.98C292.32,219.8,290.17,221.95,290.17,224.61z"/>
<path fill="#0A2658" d="M345.81,490.24c0.56,0.71,1.42,1.11,2.32,1.11h162.34c1.65,0,2.99-1.34,2.98-2.99c0-0.2-0.02-0.41-0.06-0.61
	l-2.52-11.97c-0.21-0.99-0.91-1.81-1.86-2.17c-0.34-0.13-0.7-0.2-1.06-0.2H350.64c-0.36,0-0.72,0.07-1.06,0.2
	c-0.95,0.36-1.65,1.18-1.86,2.17l-2.52,11.97C345.02,488.63,345.24,489.54,345.81,490.24z"/>
<path fill="#0D687D" d="M506.31,478.57h-4.02c-0.27,0-0.49-0.22-0.49-0.49v-2.02c0-0.27,0.22-0.49,0.49-0.49h4.02
	c0.27,0,0.49,0.22,0.49,0.49v2.02C506.8,478.35,506.58,478.57,506.31,478.57z"/>
<path fill="#0D687D" d="M496.31,478.57h-4.02c-0.27,0-0.49-0.22-0.49-0.49v-2.02c0-0.27,0.22-0.49,0.49-0.49h4.02
	c0.27,0,0.49,0.22,0.49,0.49v2.02C496.8,478.35,496.58,478.57,496.31,478.57z"/>
<path fill="#0D687D" d="M486.31,478.57h-4.02c-0.27,0-0.49-0.22-0.49-0.49v-2.02c0-0.27,0.22-0.49,0.49-0.49h4.02
	c0.27,0,0.49,0.22,0.49,0.49v2.02C486.8,478.35,486.58,478.57,486.31,478.57z"/>
<path fill="#0D687D" d="M476.31,478.57h-4.02c-0.27,0-0.49-0.22-0.49-0.49v-2.02c0-0.27,0.22-0.49,0.49-0.49h4.02
	c0.27,0,0.49,0.22,0.49,0.49v2.02C476.8,478.35,476.58,478.57,476.31,478.57z"/>
<path fill="#0D687D" d="M466.31,478.57h-4.02c-0.27,0-0.49-0.22-0.49-0.49v-2.02c0-0.27,0.22-0.49,0.49-0.49h4.02
	c0.27,0,0.49,0.22,0.49,0.49v2.02C466.8,478.35,466.58,478.57,466.31,478.57z"/>
<path fill="#0D687D" d="M456.31,478.57h-4.02c-0.27,0-0.49-0.22-0.49-0.49v-2.02c0-0.27,0.22-0.49,0.49-0.49h4.02
	c0.27,0,0.49,0.22,0.49,0.49v2.02C456.8,478.35,456.58,478.57,456.31,478.57z"/>
<path fill="#0D687D" d="M446.31,478.57h-4.02c-0.27,0-0.49-0.22-0.49-0.49v-2.02c0-0.27,0.22-0.49,0.49-0.49h4.02
	c0.27,0,0.49,0.22,0.49,0.49v2.02C446.8,478.35,446.58,478.57,446.31,478.57z"/>
<path fill="#0D687D" d="M436.31,478.57h-4.02c-0.27,0-0.49-0.22-0.49-0.49v-2.02c0-0.27,0.22-0.49,0.49-0.49h4.02
	c0.27,0,0.49,0.22,0.49,0.49v2.02C436.8,478.35,436.58,478.57,436.31,478.57z"/>
<path fill="#0D687D" d="M426.31,478.57h-4.02c-0.27,0-0.49-0.22-0.49-0.49v-2.02c0-0.27,0.22-0.49,0.49-0.49h4.02
	c0.27,0,0.49,0.22,0.49,0.49v2.02C426.8,478.35,426.58,478.57,426.31,478.57z"/>
<path fill="#0D687D" d="M416.31,478.57h-4.02c-0.27,0-0.49-0.22-0.49-0.49v-2.02c0-0.27,0.22-0.49,0.49-0.49h4.02
	c0.27,0,0.49,0.22,0.49,0.49v2.02C416.8,478.35,416.58,478.57,416.31,478.57z"/>
<path fill="#0D687D" d="M406.31,478.57h-4.02c-0.27,0-0.49-0.22-0.49-0.49v-2.02c0-0.27,0.22-0.49,0.49-0.49h4.02
	c0.27,0,0.49,0.22,0.49,0.49v2.02C406.8,478.35,406.58,478.57,406.31,478.57z"/>
<path fill="#0D687D" d="M396.31,478.57h-4.02c-0.27,0-0.49-0.22-0.49-0.49v-2.02c0-0.27,0.22-0.49,0.49-0.49h4.02
	c0.27,0,0.49,0.22,0.49,0.49v2.02C396.8,478.35,396.58,478.57,396.31,478.57z"/>
<path fill="#0D687D" d="M386.31,478.57h-4.02c-0.27,0-0.49-0.22-0.49-0.49v-2.02c0-0.27,0.22-0.49,0.49-0.49h4.02
	c0.27,0,0.49,0.22,0.49,0.49v2.02C386.8,478.35,386.58,478.57,386.31,478.57z"/>
<path fill="#0D687D" d="M376.31,478.57h-4.02c-0.27,0-0.49-0.22-0.49-0.49v-2.02c0-0.27,0.22-0.49,0.49-0.49h4.02
	c0.27,0,0.49,0.22,0.49,0.49v2.02C376.8,478.35,376.58,478.57,376.31,478.57z"/>
<path fill="#0D687D" d="M366.31,478.57h-4.02c-0.27,0-0.49-0.22-0.49-0.49v-2.02c0-0.27,0.22-0.49,0.49-0.49h4.02
	c0.27,0,0.49,0.22,0.49,0.49v2.02C366.8,478.35,366.58,478.57,366.31,478.57z"/>
<path fill="#0D687D" d="M356.31,478.57h-4.02c-0.27,0-0.49-0.22-0.49-0.49v-2.02c0-0.27,0.22-0.49,0.49-0.49h4.02
	c0.27,0,0.49,0.22,0.49,0.49v2.02C356.8,478.35,356.58,478.57,356.31,478.57z"/>
<path fill="#0D687D" d="M506.43,483.57h-4.02c-0.27,0-0.49-0.22-0.49-0.49v-2.02c0-0.27,0.22-0.49,0.49-0.49h4.02
	c0.27,0,0.49,0.22,0.49,0.49v2.02C506.92,483.35,506.7,483.57,506.43,483.57z"/>
<path fill="#0D687D" d="M496.43,483.57h-4.02c-0.27,0-0.49-0.22-0.49-0.49v-2.02c0-0.27,0.22-0.49,0.49-0.49h4.02
	c0.27,0,0.49,0.22,0.49,0.49v2.02C496.92,483.35,496.7,483.57,496.43,483.57z"/>
<path fill="#0D687D" d="M486.43,483.57h-4.02c-0.27,0-0.49-0.22-0.49-0.49v-2.02c0-0.27,0.22-0.49,0.49-0.49h4.02
	c0.27,0,0.49,0.22,0.49,0.49v2.02C486.92,483.35,486.7,483.57,486.43,483.57z"/>
<path fill="#0D687D" d="M476.43,483.57h-4.02c-0.27,0-0.49-0.22-0.49-0.49v-2.02c0-0.27,0.22-0.49,0.49-0.49h4.02
	c0.27,0,0.49,0.22,0.49,0.49v2.02C476.92,483.35,476.7,483.57,476.43,483.57z"/>
<path fill="#0D687D" d="M466.43,483.57h-4.02c-0.27,0-0.49-0.22-0.49-0.49v-2.02c0-0.27,0.22-0.49,0.49-0.49h4.02
	c0.27,0,0.49,0.22,0.49,0.49v2.02C466.92,483.35,466.7,483.57,466.43,483.57z"/>
<path fill="#0D687D" d="M456.43,483.57h-4.02c-0.27,0-0.49-0.22-0.49-0.49v-2.02c0-0.27,0.22-0.49,0.49-0.49h4.02
	c0.27,0,0.49,0.22,0.49,0.49v2.02C456.92,483.35,456.7,483.57,456.43,483.57z"/>
<path fill="#0D687D" d="M446.43,483.57h-4.02c-0.27,0-0.49-0.22-0.49-0.49v-2.02c0-0.27,0.22-0.49,0.49-0.49h4.02
	c0.27,0,0.49,0.22,0.49,0.49v2.02C446.92,483.35,446.7,483.57,446.43,483.57z"/>
<path fill="#0D687D" d="M436.43,483.57h-4.02c-0.27,0-0.49-0.22-0.49-0.49v-2.02c0-0.27,0.22-0.49,0.49-0.49h4.02
	c0.27,0,0.49,0.22,0.49,0.49v2.02C436.92,483.35,436.7,483.57,436.43,483.57z"/>
<path fill="#0D687D" d="M426.43,483.57h-4.02c-0.27,0-0.49-0.22-0.49-0.49v-2.02c0-0.27,0.22-0.49,0.49-0.49h4.02
	c0.27,0,0.49,0.22,0.49,0.49v2.02C426.92,483.35,426.7,483.57,426.43,483.57z"/>
<path fill="#0D687D" d="M416.43,483.57h-4.02c-0.27,0-0.49-0.22-0.49-0.49v-2.02c0-0.27,0.22-0.49,0.49-0.49h4.02
	c0.27,0,0.49,0.22,0.49,0.49v2.02C416.92,483.35,416.7,483.57,416.43,483.57z"/>
<path fill="#0D687D" d="M406.43,483.57h-4.02c-0.27,0-0.49-0.22-0.49-0.49v-2.02c0-0.27,0.22-0.49,0.49-0.49h4.02
	c0.27,0,0.49,0.22,0.49,0.49v2.02C406.92,483.35,406.7,483.57,406.43,483.57z"/>
<path fill="#0D687D" d="M396.43,483.57h-4.02c-0.27,0-0.49-0.22-0.49-0.49v-2.02c0-0.27,0.22-0.49,0.49-0.49h4.02
	c0.27,0,0.49,0.22,0.49,0.49v2.02C396.92,483.35,396.7,483.57,396.43,483.57z"/>
<path fill="#0D687D" d="M386.43,483.57h-4.02c-0.27,0-0.49-0.22-0.49-0.49v-2.02c0-0.27,0.22-0.49,0.49-0.49h4.02
	c0.27,0,0.49,0.22,0.49,0.49v2.02C386.92,483.35,386.7,483.57,386.43,483.57z"/>
<path fill="#0D687D" d="M376.43,483.57h-4.02c-0.27,0-0.49-0.22-0.49-0.49v-2.02c0-0.27,0.22-0.49,0.49-0.49h4.02
	c0.27,0,0.49,0.22,0.49,0.49v2.02C376.92,483.35,376.7,483.57,376.43,483.57z"/>
<path fill="#0D687D" d="M366.43,483.57h-4.02c-0.27,0-0.49-0.22-0.49-0.49v-2.02c0-0.27,0.22-0.49,0.49-0.49h4.02
	c0.27,0,0.49,0.22,0.49,0.49v2.02C366.92,483.35,366.7,483.57,366.43,483.57z"/>
<path fill="#0D687D" d="M356.43,483.57h-4.02c-0.27,0-0.49-0.22-0.49-0.49v-2.02c0-0.27,0.22-0.49,0.49-0.49h4.02
	c0.27,0,0.49,0.22,0.49,0.49v2.02C356.92,483.35,356.7,483.57,356.43,483.57z"/>
<path fill="#0D687D" d="M458.43,489.57H419.4c-0.27,0-0.49-0.22-0.49-0.49v-2.02c0-0.27,0.22-0.49,0.49-0.49h39.02
	c0.27,0,0.49,0.22,0.49,0.49v2.02C458.92,489.35,458.7,489.57,458.43,489.57z"/>
<path fill="#0D687D" d="M308.69,244.95h255.32c0.56-0.01,1.01-0.48,0.99-1.04c-0.01-0.54-0.45-0.98-0.99-0.99H308.69
	c-0.56,0.01-1.01,0.48-0.99,1.04C307.71,244.5,308.15,244.93,308.69,244.95z"/>
<ellipse fill="#0D687D" cx="546.64" cy="231.65" rx="5.95" ry="6.08"/>
<ellipse fill="#0D687D" cx="526.08" cy="231.65" rx="5.95" ry="6.08"/>
<ellipse fill="#0D687D" cx="505.52" cy="231.65" rx="5.95" ry="6.08"/>
<path fill="#0D687D" d="M319.98,228.18c0,0.6,0.48,1.1,1.09,1.1c0,0,0,0,0,0h14.6c0.61-0.01,1.09-0.52,1.08-1.13
	c-0.01-0.59-0.49-1.07-1.08-1.08h-14.6C320.46,227.08,319.98,227.57,319.98,228.18z"/>
<path fill="#0D687D" d="M319.98,232.33c0,0.6,0.48,1.1,1.09,1.1c0,0,0,0,0,0h14.6c0.61-0.01,1.09-0.52,1.08-1.13
	c-0.01-0.59-0.49-1.07-1.08-1.08h-14.6C320.46,231.23,319.98,231.72,319.98,232.33z"/>
<path fill="#0D687D" d="M319.98,236.47c0,0.61,0.48,1.1,1.09,1.11h14.6c0.61-0.01,1.09-0.52,1.08-1.13
	c-0.01-0.59-0.49-1.07-1.08-1.08h-14.6C320.47,235.37,319.98,235.86,319.98,236.47C319.98,236.47,319.98,236.47,319.98,236.47z"/>
<path fill="#E6E6E6" d="M319.25,268.54h5.25c1.59,0,2.88,1.29,2.88,2.88v0c0,1.59-1.29,2.88-2.88,2.88h-5.25
	c-1.59,0-2.88-1.29-2.88-2.88v0C316.37,269.83,317.66,268.54,319.25,268.54z"/>
<path fill="#E6E6E6" d="M379.25,268.54h5.25c1.59,0,2.88,1.29,2.88,2.88v0c0,1.59-1.29,2.88-2.88,2.88h-5.25
	c-1.59,0-2.88-1.29-2.88-2.88v0C376.37,269.83,377.66,268.54,379.25,268.54z"/>
<path fill="#E6E6E6" d="M396.25,268.54h5.25c1.59,0,2.88,1.29,2.88,2.88v0c0,1.59-1.29,2.88-2.88,2.88h-5.25
	c-1.59,0-2.88-1.29-2.88-2.88v0C393.37,269.83,394.66,268.54,396.25,268.54z"/>
<path fill="#E6E6E6" d="M335.57,268.06h32.61c1.59,0,2.88,1.29,2.88,2.88v0c0,1.59-1.29,2.88-2.88,2.88h-32.61
	c-1.59,0-2.88-1.29-2.88-2.88v0C332.69,269.35,333.98,268.06,335.57,268.06z"/>
<path fill="#E6E6E6" d="M415.57,268.06h32.61c1.59,0,2.88,1.29,2.88,2.88v0c0,1.59-1.29,2.88-2.88,2.88h-32.61
	c-1.59,0-2.88-1.29-2.88-2.88v0C412.69,269.35,413.98,268.06,415.57,268.06z"/>
<path fill="#E6E6E6" d="M335.25,281.54h5.25c1.59,0,2.88,1.29,2.88,2.88v0c0,1.59-1.29,2.88-2.88,2.88h-5.25
	c-1.59,0-2.88-1.29-2.88-2.88v0C332.37,282.83,333.66,281.54,335.25,281.54z"/>
<path fill="#E6E6E6" d="M395.25,281.54h5.25c1.59,0,2.88,1.29,2.88,2.88v0c0,1.59-1.29,2.88-2.88,2.88h-5.25
	c-1.59,0-2.88-1.29-2.88-2.88v0C392.37,282.83,393.66,281.54,395.25,281.54z"/>
<path fill="#E6E6E6" d="M412.25,281.54h5.25c1.59,0,2.88,1.29,2.88,2.88v0c0,1.59-1.29,2.88-2.88,2.88h-5.25
	c-1.59,0-2.88-1.29-2.88-2.88v0C409.37,282.83,410.66,281.54,412.25,281.54z"/>
<path fill="#E6E6E6" d="M351.57,281.06h32.61c1.59,0,2.88,1.29,2.88,2.88v0c0,1.59-1.29,2.88-2.88,2.88h-32.61
	c-1.59,0-2.88-1.29-2.88-2.88v0C348.69,282.35,349.98,281.06,351.57,281.06z"/>
<path fill="#E6E6E6" d="M431.57,281.06h32.61c1.59,0,2.88,1.29,2.88,2.88v0c0,1.59-1.29,2.88-2.88,2.88h-32.61
	c-1.59,0-2.88-1.29-2.88-2.88v0C428.69,282.35,429.98,281.06,431.57,281.06z"/>
<path fill="#E6E6E6" d="M351.25,294.54h5.25c1.59,0,2.88,1.29,2.88,2.88v0c0,1.59-1.29,2.88-2.88,2.88h-5.25
	c-1.59,0-2.88-1.29-2.88-2.88v0C348.37,295.83,349.66,294.54,351.25,294.54z"/>
<path fill="#E6E6E6" d="M411.25,294.54h5.25c1.59,0,2.88,1.29,2.88,2.88v0c0,1.59-1.29,2.88-2.88,2.88h-5.25
	c-1.59,0-2.88-1.29-2.88-2.88v0C408.37,295.83,409.66,294.54,411.25,294.54z"/>
<path fill="#E6E6E6" d="M428.25,294.54h5.25c1.59,0,2.88,1.29,2.88,2.88v0c0,1.59-1.29,2.88-2.88,2.88h-5.25
	c-1.59,0-2.88-1.29-2.88-2.88v0C425.37,295.83,426.66,294.54,428.25,294.54z"/>
<path fill="#E6E6E6" d="M367.57,294.06h32.61c1.59,0,2.88,1.29,2.88,2.88v0c0,1.59-1.29,2.88-2.88,2.88h-32.61
	c-1.59,0-2.88-1.29-2.88-2.88v0C364.69,295.35,365.98,294.06,367.57,294.06z"/>
<path fill="#E6E6E6" d="M447.57,294.06h32.61c1.59,0,2.88,1.29,2.88,2.88v0c0,1.59-1.29,2.88-2.88,2.88h-32.61
	c-1.59,0-2.88-1.29-2.88-2.88v0C444.69,295.35,445.98,294.06,447.57,294.06z"/>
<path fill="#E6E6E6" d="M367.25,307.54h5.25c1.59,0,2.88,1.29,2.88,2.88v0c0,1.59-1.29,2.88-2.88,2.88h-5.25
	c-1.59,0-2.88-1.29-2.88-2.88v0C364.37,308.83,365.66,307.54,367.25,307.54z"/>
<path fill="#E6E6E6" d="M427.25,307.54h5.25c1.59,0,2.88,1.29,2.88,2.88v0c0,1.59-1.29,2.88-2.88,2.88h-5.25
	c-1.59,0-2.88-1.29-2.88-2.88v0C424.37,308.83,425.66,307.54,427.25,307.54z"/>
<path fill="#E6E6E6" d="M444.25,307.54h5.25c1.59,0,2.88,1.29,2.88,2.88v0c0,1.59-1.29,2.88-2.88,2.88h-5.25
	c-1.59,0-2.88-1.29-2.88-2.88v0C441.37,308.83,442.66,307.54,444.25,307.54z"/>
<path fill="#E6E6E6" d="M383.57,307.06h32.61c1.59,0,2.88,1.29,2.88,2.88v0c0,1.59-1.29,2.88-2.88,2.88h-32.61
	c-1.59,0-2.88-1.29-2.88-2.88v0C380.69,308.35,381.98,307.06,383.57,307.06z"/>
<path fill="#E6E6E6" d="M379.25,359.24h5.25c1.59,0,2.88,1.29,2.88,2.88v0c0,1.59-1.29,2.88-2.88,2.88h-5.25
	c-1.59,0-2.88-1.29-2.88-2.88v0C376.37,360.53,377.66,359.24,379.25,359.24z"/>
<path fill="#E6E6E6" d="M396.25,359.24h5.25c1.59,0,2.88,1.29,2.88,2.88v0c0,1.59-1.29,2.88-2.88,2.88h-5.25
	c-1.59,0-2.88-1.29-2.88-2.88v0C393.37,360.53,394.66,359.24,396.25,359.24z"/>
<path fill="#E6E6E6" d="M415.57,359.72h32.61c1.59,0,2.88,1.29,2.88,2.88v0c0,1.59-1.29,2.88-2.88,2.88h-32.61
	c-1.59,0-2.88-1.29-2.88-2.88v0C412.69,361.01,413.98,359.72,415.57,359.72z"/>
<path fill="#E6E6E6" d="M319.25,359.24h5.25c1.59,0,2.88,1.29,2.88,2.88v0c0,1.59-1.29,2.88-2.88,2.88h-5.25
	c-1.59,0-2.88-1.29-2.88-2.88v0C316.37,360.53,317.66,359.24,319.25,359.24z"/>
<path fill="#E6E6E6" d="M335.57,359.72h32.61c1.59,0,2.88,1.29,2.88,2.88v0c0,1.59-1.29,2.88-2.88,2.88h-32.61
	c-1.59,0-2.88-1.29-2.88-2.88v0C332.69,361.01,333.98,359.72,335.57,359.72z"/>
<path fill="#E6E6E6" d="M335.25,346.24h5.25c1.59,0,2.88,1.29,2.88,2.88v0c0,1.59-1.29,2.88-2.88,2.88h-5.25
	c-1.59,0-2.88-1.29-2.88-2.88v0C332.37,347.53,333.66,346.24,335.25,346.24z"/>
<path fill="#E6E6E6" d="M395.25,346.24h5.25c1.59,0,2.88,1.29,2.88,2.88v0c0,1.59-1.29,2.88-2.88,2.88h-5.25
	c-1.59,0-2.88-1.29-2.88-2.88v0C392.37,347.53,393.66,346.24,395.25,346.24z"/>
<path fill="#E6E6E6" d="M412.25,346.24h5.25c1.59,0,2.88,1.29,2.88,2.88v0c0,1.59-1.29,2.88-2.88,2.88h-5.25
	c-1.59,0-2.88-1.29-2.88-2.88v0C409.37,347.53,410.66,346.24,412.25,346.24z"/>
<path fill="#E6E6E6" d="M351.57,346.72h32.61c1.59,0,2.88,1.29,2.88,2.88v0c0,1.59-1.29,2.88-2.88,2.88h-32.61
	c-1.59,0-2.88-1.29-2.88-2.88v0C348.69,348.01,349.98,346.72,351.57,346.72z"/>
<path fill="#E6E6E6" d="M351.25,333.24h5.25c1.59,0,2.88,1.29,2.88,2.88v0c0,1.59-1.29,2.88-2.88,2.88h-5.25
	c-1.59,0-2.88-1.29-2.88-2.88v0C348.37,334.53,349.66,333.24,351.25,333.24z"/>
<path fill="#E6E6E6" d="M411.25,333.24h5.25c1.59,0,2.88,1.29,2.88,2.88v0c0,1.59-1.29,2.88-2.88,2.88h-5.25
	c-1.59,0-2.88-1.29-2.88-2.88v0C408.37,334.53,409.66,333.24,411.25,333.24z"/>
<path fill="#E6E6E6" d="M428.25,333.24h5.25c1.59,0,2.88,1.29,2.88,2.88v0c0,1.59-1.29,2.88-2.88,2.88h-5.25
	c-1.59,0-2.88-1.29-2.88-2.88v0C425.37,334.53,426.66,333.24,428.25,333.24z"/>
<path fill="#E6E6E6" d="M367.57,333.72h32.61c1.59,0,2.88,1.29,2.88,2.88v0c0,1.59-1.29,2.88-2.88,2.88h-32.61
	c-1.59,0-2.88-1.29-2.88-2.88v0C364.69,335.01,365.98,333.72,367.57,333.72z"/>
<path fill="#E6E6E6" d="M367.25,320.24h5.25c1.59,0,2.88,1.29,2.88,2.88v0c0,1.59-1.29,2.88-2.88,2.88h-5.25
	c-1.59,0-2.88-1.29-2.88-2.88v0C364.37,321.53,365.66,320.24,367.25,320.24z"/>
<path fill="#E6E6E6" d="M427.25,320.24h5.25c1.59,0,2.88,1.29,2.88,2.88v0c0,1.59-1.29,2.88-2.88,2.88h-5.25
	c-1.59,0-2.88-1.29-2.88-2.88v0C424.37,321.53,425.66,320.24,427.25,320.24z"/>
<path fill="#E6E6E6" d="M444.25,320.24h5.25c1.59,0,2.88,1.29,2.88,2.88v0c0,1.59-1.29,2.88-2.88,2.88h-5.25
	c-1.59,0-2.88-1.29-2.88-2.88v0C441.37,321.53,442.66,320.24,444.25,320.24z"/>
<path fill="#E6E6E6" d="M383.57,320.72h32.61c1.59,0,2.88,1.29,2.88,2.88v0c0,1.59-1.29,2.88-2.88,2.88h-32.61
	c-1.59,0-2.88-1.29-2.88-2.88v0C380.69,322.01,381.98,320.72,383.57,320.72z"/>
<path fill="#0D687D" d="M349.91,545.95c-0.22,0.11-0.44,0.22-0.66,0.32c-1.39,0.69-2.79,1.37-4.2,2.04
	c-4.22,2.01-8.49,3.92-12.82,5.73c-11.38,4.76-23.07,8.78-34.97,12.03c-2-12.47-3.94-41.88-5.8-63.51
	c-0.35-4.07-0.7-7.86-1.05-11.21c-0.33-4.4-0.96-8.77-1.89-13.08c-0.09-0.34-0.22-0.66-0.39-0.97c0.19,1.73,0.39,6.89,0.58,14.05
	c0.1,3.35,0.19,7.14,0.29,11.21c0.47,20.82,0.96,49.15,1.45,65.28c-1.39,0.34-2.79,0.68-4.19,1c-0.88,0.21-1.77,0.41-2.66,0.6
	c-1.08,0.24-2.16,0.48-3.24,0.7c-1.13,0.24-2.26,0.47-3.39,0.69c-18.47,3.63-37.24,5.45-56.06,5.44c-1.25,0-2.49-0.01-3.74-0.02
	c-0.38,0-0.76-0.01-1.15-0.02c-1.1-0.02-2.24-0.04-3.4-0.07c-22.24-0.61-44.33-3.8-65.84-9.49l0.87-64.11l0.15-11.21l0.06-4.25
	c-0.5,1.37-0.79,2.8-0.88,4.25c-0.35,2.73-0.71,6.6-1.07,11.21c-1.37,17.76-2.78,46.41-4.24,62.71
	c-17.29-4.92-29.93-9.41-45.73-17.31c-0.61-0.3-1.23-0.61-1.84-0.92c0.11-0.77,0.23-1.54,0.34-2.33
	c1.79-12.44-0.32-28.63,1.66-42.15c1.51-10.43,3.07-20.45,4.64-28.95c1.9-10.23,3.83-18.27,5.74-22.18c2.2-4.51,4.4-8.95,6.53-13.2
	c0.92-1.83,1.82-3.63,2.71-5.39c0.48-0.95,0.96-1.89,1.43-2.81c2.14-4.19,4.16-8.06,6.01-11.49c1.3-2.41,2.5-4.59,3.6-6.5
	c1.29-2.25,2.43-4.11,3.37-5.52c6.94-10.52,17.27-18.36,29.28-22.21l0.3-0.08l0.29,0.12l0.33,0.15l19.06-6.97l8.51-20.49l43.71-2.69
	l7.06,5.37l3.61,2.75l3.85,2.93l7.08,5.39l2.01,0.62l2.99,0.92l20.45,6.28l0.21-0.09l0.3,0.08c10.93,3.5,20.49,10.31,27.36,19.5
	c0.68,0.88,1.31,1.79,1.92,2.71c1.66,2.46,3.9,6.35,6.54,11.23c1.09,2.01,2.24,4.19,3.45,6.5c0.73,1.39,7.03,21.05,13.16,41.13
	c5.73,18.8,11.31,37.97,12.04,42.89c0.13,0.91,0.27,1.83,0.4,2.74c0.83,5.69,1.65,11.42,2.44,17.01c1.17,8.29,2.31,16.29,3.4,23.44
	C349.89,545.82,349.9,545.88,349.91,545.95z"/>
<polygon opacity="0.2" enable-background="new    " points="303.59,473.57 295.09,440.77 287.59,469.07 "/>
<path fill="#0A2658" d="M15.83,473.19c0.9,2.63,3.4,4.38,6.18,4.33l26.49-0.68c2.81-0.05,5.24-1.95,5.98-4.66l3.75-40.09
	c1.33,0.6,2.78,0.9,4.24,0.87c5.33-0.13,9.55-4.57,9.42-9.9c-0.13-5.33-4.57-9.55-9.9-9.42l0,0c-0.58,0-1.17,0.06-1.74,0.18
	c-1.25-1.36-3.03-2.12-4.87-2.1l-40.75,1.05c-0.34,0.01-0.67,0.05-1.01,0.12c-3.46,0.64-5.73,3.97-5.09,7.42
	c0.05,0.29,0.13,0.57,0.22,0.84L15.83,473.19z M59,429.37l2.67-9.55c0.3-1.1,0.31-2.27,0.02-3.37c0.13,0,0.24-0.06,0.37-0.06
	c3.82-0.08,6.97,2.95,7.05,6.77c0.08,3.8-2.93,6.95-6.73,7.05C61.2,430.23,60.03,429.95,59,429.37L59,429.37z"/>
<path fill="#0D687D" d="M13.62,412.9c0.87,4.96,10.63,8.45,22.37,7.85c10.79-0.5,19.62-4.29,21.23-8.78
	c-0.6-0.18-1.22-0.26-1.84-0.25l-40.75,1.05C14.29,412.79,13.95,412.83,13.62,412.9z"/>
<path fill="#0D687D" d="M785.15,547.04c-0.61,0.31-1.23,0.62-1.84,0.92c-15.8,7.9-28.44,12.39-45.73,17.31
	c-1.46-16.3-2.87-44.95-4.24-62.71c-0.36-4.61-0.72-8.48-1.07-11.21c-0.09-1.45-0.38-2.88-0.88-4.25l0.06,4.25l0.15,11.21
	l0.87,64.11c-21.51,5.69-43.6,8.88-65.84,9.49c-1.16,0.03-2.3,0.05-3.4,0.07c-0.39,0.01-0.77,0.02-1.15,0.02
	c-1.25,0.01-2.49,0.02-3.74,0.02c-23.44,0.02-46.79-2.81-69.54-8.43c0.49-16.13,0.98-44.46,1.45-65.28
	c0.1-4.07,0.19-7.86,0.29-11.21c0.19-7.16,0.39-12.32,0.58-14.05c-0.17,0.31-0.3,0.63-0.39,0.97c-0.93,4.31-1.56,8.68-1.89,13.08
	c-0.35,3.35-0.7,7.14-1.05,11.21c-1.86,21.63-3.8,51.04-5.8,63.51c-11.9-3.25-23.59-7.27-34.97-12.03c-6-2.5-11.89-5.2-17.68-8.09
	c1.1-7.2,2.25-15.27,3.43-23.64c0.92-6.49,1.87-13.16,2.84-19.75c1.5-10.18,52.46-120.11,64.47-123.96l0.3-0.08l0.21,0.09
	l20.45-6.28l2.99-0.92l2.01-0.62l7.08-5.39l3.85-2.93l3.61-2.75l7.06-5.37l43.71,2.69l8.51,20.49l19.06,6.97l0.33-0.15l0.29-0.12
	l0.3,0.08c12.01,3.85,22.34,11.69,29.28,22.21c0.94,1.41,2.08,3.27,3.37,5.52c1.1,1.91,2.3,4.09,3.6,6.5
	c1.85,3.43,3.87,7.3,6.01,11.49c0.47,0.92,0.95,1.86,1.43,2.81c0.89,1.76,1.79,3.56,2.71,5.39c2.13,4.25,4.33,8.69,6.53,13.2
	c1.91,3.91,3.84,11.95,5.74,22.18c1.57,8.5,3.13,18.52,4.64,28.95c1.98,13.52-0.13,29.71,1.66,42.15
	C784.92,545.5,785.04,546.27,785.15,547.04z"/>
<circle fill="#FFB6B6" cx="656.95" cy="296.16" r="50.84"/>
<polygon opacity="0.2" enable-background="new    " points="575.66,473.57 584.16,440.77 591.66,469.07 "/>
<path fill="#0A2658" d="M801.77,452.2c-3.04,41.88,0.11,60.32-16.67,94.85c-15.27,7.47-31.17,13.57-47.52,18.22
	c-1.7,0.48-3.4,0.95-5.11,1.4c-21.51,5.69-43.6,8.88-65.84,9.49c-1.16,0.03-2.3,0.05-3.4,0.07c-0.39,0.01-0.77,0.02-1.15,0.02
	c-1.25,0.01-2.49,0.02-3.74,0.02c-23.44,0.02-46.79-2.81-69.54-8.43c-2.28-0.56-4.55-1.15-6.81-1.77
	c-11.9-3.25-23.59-7.27-34.97-12.03c-6-2.5-11.89-5.2-17.68-8.09c-1.31-0.66-2.62-1.32-3.91-2c-6.63-11.66-10.4-25.84-10.48-42.88
	C519.54,471.71,791.63,426.88,801.77,452.2z"/>
<path opacity="0.2" enable-background="new    " d="M801.76,459.37c0.16-2.59,0.33-5.27,0.53-8.06
	c-10.14-25.32-282.23,19.51-286.82,48.87c0.01,2.69,0.13,5.3,0.32,7.85C526.91,479.06,785.4,436.45,801.76,459.37z"/>
<path fill="#FFB6B6" d="M508.18,454.18l22.33-11.17l-18.61-50.25l-4.9-25.34c-2.01-10.39-12.06-17.18-22.45-15.17
	c-3.26,0.63-6.31,2.1-8.83,4.26l0,0c-7.84,6.72-8.95,18.45-2.49,26.52l18.21,22.76L508.18,454.18z"/>
<path fill="#0D687D" d="M530.52,433.7l-29.78,14.89l22.6,70.81c3.3,10.34,11.77,18.2,22.34,20.72l0,0
	c13.14,3.13,26.79-2.62,33.74-14.2l59.92-102.71c8.83-14.72,4.31-33.8-10.2-42.98l0,0c-14.75-9.34-34.29-4.96-43.63,9.8
	c-0.61,0.96-1.16,1.95-1.66,2.97l-36.58,77.94L530.52,433.7z"/>
<circle fill="#A0616A" cx="209.51" cy="287.55" r="55.94"/>
<path fill="#0A2658" d="M154.24,249.01c4.55-6.13,11.08-10.49,16.08-16.25c2.74-3.16,5.02-6.75,8.11-9.58
	c5.73-5.26,13.74-7.42,21.52-7.69c17.28-0.44,33.75,7.37,44.33,21.04c4.06-2.38,8.13-4.77,12.19-7.15
	c1.61,4.23,3.21,8.45,4.82,12.68c3.08-2.68,7.75-2.35,10.43,0.73c2.06,2.37,2.4,5.79,0.84,8.52c0.97-2.99,5.4-3.62,7.84-1.65
	c2.44,1.97,3.1,5.49,2.7,8.6c-1.02,6.99-6.19,12.66-13.06,14.33c-5.3,1.18-11.48-0.06-15.72,3.33c-3.4,2.72-4.43,7.67-7.9,10.3
	c-4.28,3.24-10.33,1.74-15.65,2.46c-9.31,1.25-16.68,10.77-15.56,20.1c-0.84-2.94-1.73-5.97-3.64-8.36
	c-1.91-2.39-5.13-4.01-8.06-3.13c-4.85,1.45-5.64,8.06-4.46,12.98c3.11,13.05,14.92,34.14,14.92,34.14
	c-15.33,6.05-33.59,0.33-45.42-11.14c-11.83-11.47-17.99-27.72-20.67-43.98C145.6,275.5,145.92,260.23,154.24,249.01z"/>
<path fill="#0A2658" d="M720.66,324.18c10.64-24.4,4.61-46.85-8.36-58.76v-0.01c-5.1-11.43-11.88-20.25-19.64-22.32
	c-3.75-2.41-7.39-5.24-11.43-6.68c-3.8-1.42-8.02-1.23-11.68,0.53l-2.06-0.55c-1.75-4.47-3.8-4.56-6.08-1.62
	c-8.78-4.09-16.69-5.92-23.73-5.92c-22.96,0-36.54,19.44-40.14,42.94l19.19,5.11l6.67-10.63l-3.08,11.59l10.59,2.81
	c16.12,20.99-3.17,69.41-27.62,96.35c5.82-1.61,11.62-2.97,17.39-4.08l20.98-30.76l-13,28c6.75-0.99,15.36-0.04,24.77,1.87
	c3.17-4.14,4.84-9.66,3.2-14.58c2.68,5.19,4.53,10.77,5.48,16.53c19.86,4.85,46.95,7.34,61.55,9.18
	C735.46,379.33,735.49,335.84,720.66,324.18z"/>
<path fill="#0A2658" d="M727.59,241.19c7.79,17.45-7.93,24.96-22.34,24.75c-13.02-0.19-24.08-9.34-24.75-22.34
	c-0.66-13,9.34-24.08,22.34-24.75l0,0C715.84,218.18,722.28,229.3,727.59,241.19z"/>
<path fill="#A0616A" d="M365.98,525.31l-12.84-21.42l42.69-32.39l17.75-18.74c7.28-7.68,19.41-8.01,27.09-0.74
	c2.41,2.29,4.19,5.16,5.16,8.34l0,0c3,9.88-2.37,20.37-12.14,23.71l-27.58,9.42L365.98,525.31z"/>
<path fill="#0D687D" d="M375.26,524.6l-19.99,16.66l-5.39,4.49l-0.63,0.52c-1.39,0.69-2.79,1.37-4.2,2.04
	c-4.22,2.01-8.49,3.92-12.82,5.73c-11.38,4.76-23.07,8.78-34.97,12.03c-2.26,0.62-4.53,1.21-6.81,1.77c-1.39,0.34-2.79,0.68-4.19,1
	c-0.88,0.21-1.77,0.41-2.66,0.6c-1.08,0.24-2.16,0.48-3.24,0.7c-1.13,0.24-2.26,0.47-3.39,0.69c-6.14-5.85-9.62-13.96-9.62-22.44
	c0-0.27,0-0.55,0.01-0.83l3.21-82.33l1.42-36.49c0.45-17.16,14.52-30.83,31.69-30.78c0.96,0,1.91,0.05,2.85,0.14
	c0.68,0.88,1.31,1.79,1.92,2.71c1.66,2.46,3.9,6.35,6.54,11.23c1.09,2.01,2.24,4.19,3.45,6.5c0.73,1.39,7.03,21.05,13.16,41.13
	l-2.7,20.97l-4.88,37.8l20.02-13.14l14.1-9.26l1.67,2.79l4.35,7.26l8.4,14L375.26,524.6z"/>
<path fill="#0A2658" d="M364.3,501.07c-0.01,1.7-0.05,3.37-0.14,5.02c-0.21,4.55-0.74,9.08-1.58,13.56
	c-1.38,7.52-3.84,14.8-7.31,21.61c-0.46,0.91-0.95,1.81-1.45,2.69c-1.29,0.68-2.6,1.34-3.91,2c-0.22,0.11-0.44,0.22-0.66,0.32
	c-5.57,2.77-11.24,5.36-17.02,7.77c-11.38,4.76-23.07,8.78-34.97,12.03c-2.26,0.62-4.53,1.21-6.81,1.77
	c-4.45,1.1-8.94,2.1-13.48,2.99c-18.47,3.63-37.24,5.45-56.06,5.44c-1.25,0-2.49-0.01-3.74-0.02c-0.38,0-0.76-0.01-1.15-0.02
	c-1.1-0.02-2.24-0.04-3.4-0.07c-22.24-0.61-44.33-3.8-65.84-9.49c-1.71-0.45-3.41-0.92-5.11-1.4
	c-16.35-4.65-32.25-10.75-47.52-18.22c-16.78-34.53-13.63-52.97-16.67-94.85c6.24-15.59,111.81-4.58,193.09,13.03
	c22.06,4.78,42.32,10.05,58.33,15.41c16.54,5.53,28.53,11.15,33.23,16.43C363.23,498.17,363.98,499.56,364.3,501.07z"/>
<path opacity="0.2" enable-background="new    " d="M77.49,459.37c-0.16-2.59-0.33-5.27-0.53-8.06
	c10.14-25.32,282.23,19.51,286.82,48.87c-0.01,2.69-0.13,5.3-0.32,7.85C352.34,479.06,93.85,436.45,77.49,459.37z"/>
<path fill="#1C8F8C" d="M45.98,435.44c-1.66,0-3,1.34-3,3s1.34,3,3,3s3-1.34,3-3S47.63,435.44,45.98,435.44z M34.98,439.44
	c-5.52,0-10,4.48-10,10s4.48,10,10,10s10-4.48,10-10S40.5,439.44,34.98,439.44z M38.98,442.44c1.66,0,3,1.34,3,3s-1.34,3-3,3
	s-3-1.34-3-3S37.32,442.44,38.98,442.44z"/>
</svg>
